<?xml version="1.0" encoding="utf-8" standalone="no"?>
<!DOCTYPE svg PUBLIC "-//W3C//DTD SVG 1.1//EN"
  "http://www.w3.org/Graphics/SVG/1.1/DTD/svg11.dtd">
<svg xmlns:xlink="http://www.w3.org/1999/xlink" width="508.534pt" height="197.681797pt" viewBox="0 0 508.534 197.681797" xmlns="http://www.w3.org/2000/svg" version="1.1">
 <metadata>
  <rdf:RDF xmlns:dc="http://purl.org/dc/elements/1.1/" xmlns:cc="http://creativecommons.org/ns#" xmlns:rdf="http://www.w3.org/1999/02/22-rdf-syntax-ns#">
   <cc:Work>
    <dc:type rdf:resource="http://purl.org/dc/dcmitype/StillImage"/>
    <dc:date>2026-04-18T15:26:51.223146</dc:date>
    <dc:format>image/svg+xml</dc:format>
    <dc:creator>
     <cc:Agent>
      <dc:title>Matplotlib v3.8.4, https://matplotlib.org/</dc:title>
     </cc:Agent>
    </dc:creator>
   </cc:Work>
  </rdf:RDF>
 </metadata>
 <defs>
  <style type="text/css">*{stroke-linejoin: round; stroke-linecap: butt}</style>
 </defs>
 <g id="figure_1">
  <g id="patch_1">
   <path d="M 0 197.681797 
L 508.534 197.681797 
L 508.534 0 
L 0 0 
z
" style="fill: #ffffff"/>
  </g>
  <g id="axes_1">
   <g id="patch_2">
    <path d="M 35.33 163.652812 
L 253.477091 163.652812 
L 253.477091 18.088015 
L 35.33 18.088015 
z
" style="fill: #ffffff"/>
   </g>
   <g id="PolyCollection_1">
    <defs>
     <path id="maa6ac86425" d="M 45.245777 -172.9772 
L 45.245777 -150.498444 
L 84.908884 -153.044889 
L 124.571992 -156.376912 
L 164.235099 -153.84089 
L 203.898207 -150.723361 
L 243.561314 -156.887776 
L 243.561314 -163.906282 
L 243.561314 -163.906282 
L 203.898207 -166.310891 
L 164.235099 -168.100395 
L 124.571992 -169.372005 
L 84.908884 -167.418797 
L 45.245777 -172.9772 
z
" style="stroke: #3a7d7b; stroke-opacity: 0.15"/>
    </defs>
    <g clip-path="url(#p984569bfcd)">
     <use xlink:href="#maa6ac86425" x="0" y="197.681797" style="fill: #3a7d7b; fill-opacity: 0.15; stroke: #3a7d7b; stroke-opacity: 0.15"/>
    </g>
   </g>
   <g id="PolyCollection_2">
    <defs>
     <path id="mc2aa2e58fb" d="M 45.245777 -108.077865 
L 45.245777 -69.30478 
L 84.908884 -74.11903 
L 124.571992 -73.798602 
L 164.235099 -83.250068 
L 203.898207 -81.624446 
L 243.561314 -74.691073 
L 243.561314 -92.480172 
L 243.561314 -92.480172 
L 203.898207 -99.224331 
L 164.235099 -97.894393 
L 124.571992 -100.095099 
L 84.908884 -100.57842 
L 45.245777 -108.077865 
z
" style="stroke: #d4853a; stroke-opacity: 0.15"/>
    </defs>
    <g clip-path="url(#p984569bfcd)">
     <use xlink:href="#mc2aa2e58fb" x="0" y="197.681797" style="fill: #d4853a; fill-opacity: 0.15; stroke: #d4853a; stroke-opacity: 0.15"/>
    </g>
   </g>
   <g id="PolyCollection_3">
    <defs>
     <path id="mcc76ea948c" d="M 45.245777 -84.600238 
L 45.245777 -40.645566 
L 84.908884 -47.14407 
L 124.571992 -43.984374 
L 164.235099 -47.047899 
L 203.898207 -48.332283 
L 243.561314 -48.756441 
L 243.561314 -67.518585 
L 243.561314 -67.518585 
L 203.898207 -70.392354 
L 164.235099 -70.954609 
L 124.571992 -77.313409 
L 84.908884 -68.372932 
L 45.245777 -84.600238 
z
" style="stroke: #7b6ba5; stroke-opacity: 0.15"/>
    </defs>
    <g clip-path="url(#p984569bfcd)">
     <use xlink:href="#mcc76ea948c" x="0" y="197.681797" style="fill: #7b6ba5; fill-opacity: 0.15; stroke: #7b6ba5; stroke-opacity: 0.15"/>
    </g>
   </g>
   <g id="matplotlib.axis_1">
    <g id="xtick_1">
     <g id="line2d_1">
      <defs>
       <path id="m336b76491f" d="M 0 0 
L 0 4 
" style="stroke: #000000; stroke-width: 0.8"/>
      </defs>
      <g>
       <use xlink:href="#m336b76491f" x="45.245777" y="163.652812" style="stroke: #000000; stroke-width: 0.8"/>
      </g>
     </g>
     <g id="text_1">
      <!-- $\mathdefault{2^{8}}$ -->
      <g transform="translate(41.675777 178.231562)">
       <text>
        <tspan style="font: 7px 'Arial'" x="0" y="-0.5995625000000011">2</tspan>
        <tspan style="font: 4.9px 'Arial'" x="4.01503" y="-5.478125">8</tspan>
       </text>
      </g>
     </g>
    </g>
    <g id="xtick_2">
     <g id="line2d_2">
      <g>
       <use xlink:href="#m336b76491f" x="84.908884" y="163.652812" style="stroke: #000000; stroke-width: 0.8"/>
      </g>
     </g>
     <g id="text_2">
      <!-- $\mathdefault{2^{9}}$ -->
      <g transform="translate(81.338884 178.231562)">
       <text>
        <tspan style="font: 7px 'Arial'" x="0" y="-0.5995625000000011">2</tspan>
        <tspan style="font: 4.9px 'Arial'" x="4.01503" y="-5.478125">9</tspan>
       </text>
      </g>
     </g>
    </g>
    <g id="xtick_3">
     <g id="line2d_3">
      <g>
       <use xlink:href="#m336b76491f" x="124.571992" y="163.652812" style="stroke: #000000; stroke-width: 0.8"/>
      </g>
     </g>
     <g id="text_3">
      <!-- $\mathdefault{2^{10}}$ -->
      <g transform="translate(119.636992 178.231562)">
       <text>
        <tspan style="font: 7px 'Arial'" x="0" y="-0.5995625000000011">2</tspan>
        <tspan style="font: 4.9px 'Arial'" x="4.01503 6.740177" y="-5.478125">10</tspan>
       </text>
      </g>
     </g>
    </g>
    <g id="xtick_4">
     <g id="line2d_4">
      <g>
       <use xlink:href="#m336b76491f" x="164.235099" y="163.652812" style="stroke: #000000; stroke-width: 0.8"/>
      </g>
     </g>
     <g id="text_4">
      <!-- $\mathdefault{2^{11}}$ -->
      <g transform="translate(159.300099 178.231562)">
       <text>
        <tspan style="font: 7px 'Arial'" x="0" y="-0.5995625000000011">2</tspan>
        <tspan style="font: 4.9px 'Arial'" x="4.01503 6.740177" y="-5.478125">11</tspan>
       </text>
      </g>
     </g>
    </g>
    <g id="xtick_5">
     <g id="line2d_5">
      <g>
       <use xlink:href="#m336b76491f" x="203.898207" y="163.652812" style="stroke: #000000; stroke-width: 0.8"/>
      </g>
     </g>
     <g id="text_5">
      <!-- $\mathdefault{2^{12}}$ -->
      <g transform="translate(198.963207 178.231562)">
       <text>
        <tspan style="font: 7px 'Arial'" x="0" y="-0.5995625000000011">2</tspan>
        <tspan style="font: 4.9px 'Arial'" x="4.01503 6.740177" y="-5.478125">12</tspan>
       </text>
      </g>
     </g>
    </g>
    <g id="xtick_6">
     <g id="line2d_6">
      <g>
       <use xlink:href="#m336b76491f" x="243.561314" y="163.652812" style="stroke: #000000; stroke-width: 0.8"/>
      </g>
     </g>
     <g id="text_6">
      <!-- $\mathdefault{2^{13}}$ -->
      <g transform="translate(238.626314 178.231562)">
       <text>
        <tspan style="font: 7px 'Arial'" x="0" y="-0.5995625000000011">2</tspan>
        <tspan style="font: 4.9px 'Arial'" x="4.01503 6.740177" y="-5.478125">13</tspan>
       </text>
      </g>
     </g>
    </g>
    <g id="text_7">
     <!-- $N_\mathrm{base}$ -->
     <g transform="translate(135.216045 188.991172)">
      <text>
       <tspan style="font: oblique 7.5px 'DejaVu Sans'" x="0" y="-0.53125">N</tspan>
       <tspan style="font: 5.25px 'DejaVu Sans'" x="5.610352 8.942871 12.160034 14.895264" y="0.7015624999999996">base</tspan>
      </text>
     </g>
    </g>
   </g>
   <g id="matplotlib.axis_2">
    <g id="ytick_1">
     <g id="line2d_7">
      <defs>
       <path id="m8abc1ecf31" d="M 0 0 
L -4 0 
" style="stroke: #000000; stroke-width: 0.8"/>
      </defs>
      <g>
       <use xlink:href="#m8abc1ecf31" x="35.33" y="152.282087" style="stroke: #000000; stroke-width: 0.8"/>
      </g>
     </g>
     <g id="text_8">
      <text style="font: 7px 'Arial', 'Helvetica', 'DejaVu Sans', sans-serif; text-anchor: end" x="27.83" y="154.787321" transform="rotate(-0 27.83 154.787321)">0.0</text>
     </g>
    </g>
    <g id="ytick_2">
     <g id="line2d_8">
      <g>
       <use xlink:href="#m8abc1ecf31" x="35.33" y="131.131816" style="stroke: #000000; stroke-width: 0.8"/>
      </g>
     </g>
     <g id="text_9">
      <text style="font: 7px 'Arial', 'Helvetica', 'DejaVu Sans', sans-serif; text-anchor: end" x="27.83" y="133.637051" transform="rotate(-0 27.83 133.637051)">0.1</text>
     </g>
    </g>
    <g id="ytick_3">
     <g id="line2d_9">
      <g>
       <use xlink:href="#m8abc1ecf31" x="35.33" y="109.981546" style="stroke: #000000; stroke-width: 0.8"/>
      </g>
     </g>
     <g id="text_10">
      <text style="font: 7px 'Arial', 'Helvetica', 'DejaVu Sans', sans-serif; text-anchor: end" x="27.83" y="112.48678" transform="rotate(-0 27.83 112.48678)">0.2</text>
     </g>
    </g>
    <g id="ytick_4">
     <g id="line2d_10">
      <g>
       <use xlink:href="#m8abc1ecf31" x="35.33" y="88.831275" style="stroke: #000000; stroke-width: 0.8"/>
      </g>
     </g>
     <g id="text_11">
      <text style="font: 7px 'Arial', 'Helvetica', 'DejaVu Sans', sans-serif; text-anchor: end" x="27.83" y="91.33651" transform="rotate(-0 27.83 91.33651)">0.3</text>
     </g>
    </g>
    <g id="ytick_5">
     <g id="line2d_11">
      <g>
       <use xlink:href="#m8abc1ecf31" x="35.33" y="67.681005" style="stroke: #000000; stroke-width: 0.8"/>
      </g>
     </g>
     <g id="text_12">
      <text style="font: 7px 'Arial', 'Helvetica', 'DejaVu Sans', sans-serif; text-anchor: end" x="27.83" y="70.186239" transform="rotate(-0 27.83 70.186239)">0.4</text>
     </g>
    </g>
    <g id="ytick_6">
     <g id="line2d_12">
      <g>
       <use xlink:href="#m8abc1ecf31" x="35.33" y="46.530735" style="stroke: #000000; stroke-width: 0.8"/>
      </g>
     </g>
     <g id="text_13">
      <text style="font: 7px 'Arial', 'Helvetica', 'DejaVu Sans', sans-serif; text-anchor: end" x="27.83" y="49.035969" transform="rotate(-0 27.83 49.035969)">0.5</text>
     </g>
    </g>
    <g id="ytick_7">
     <g id="line2d_13">
      <g>
       <use xlink:href="#m8abc1ecf31" x="35.33" y="25.380464" style="stroke: #000000; stroke-width: 0.8"/>
      </g>
     </g>
     <g id="text_14">
      <text style="font: 7px 'Arial', 'Helvetica', 'DejaVu Sans', sans-serif; text-anchor: end" x="27.83" y="27.885698" transform="rotate(-0 27.83 27.885698)">0.6</text>
     </g>
    </g>
    <g id="text_15">
     <!-- $S_1$ -->
     <g transform="translate(12.609375 95.032913) rotate(-90)">
      <text>
       <tspan style="font: oblique 7.5px 'DejaVu Sans'" x="0" y="-0.4375">S</tspan>
       <tspan style="font: 5.25px 'DejaVu Sans'" x="4.760742" y="0.7953124999999996">1</tspan>
      </text>
     </g>
    </g>
   </g>
   <g id="line2d_14">
    <path d="M 45.245777 36.48825 
L 84.908884 36.852766 
L 124.571992 34.092318 
L 164.235099 35.306343 
L 203.898207 36.413579 
L 243.561314 37.447752 
" clip-path="url(#p984569bfcd)" style="fill: none; stroke: #3a7d7b; stroke-linecap: square"/>
    <defs>
     <path id="m33121a559e" d="M 0 1.5 
C 0.397805 1.5 0.77937 1.341951 1.06066 1.06066 
C 1.341951 0.77937 1.5 0.397805 1.5 0 
C 1.5 -0.397805 1.341951 -0.77937 1.06066 -1.06066 
C 0.77937 -1.341951 0.397805 -1.5 0 -1.5 
C -0.397805 -1.5 -0.77937 -1.341951 -1.06066 -1.06066 
C -1.341951 -0.77937 -1.5 -0.397805 -1.5 0 
C -1.5 0.397805 -1.341951 0.77937 -1.06066 1.06066 
C -0.77937 1.341951 -0.397805 1.5 0 1.5 
z
" style="stroke: #3a7d7b"/>
    </defs>
    <g clip-path="url(#p984569bfcd)">
     <use xlink:href="#m33121a559e" x="45.245777" y="36.48825" style="fill: #3a7d7b; stroke: #3a7d7b"/>
     <use xlink:href="#m33121a559e" x="84.908884" y="36.852766" style="fill: #3a7d7b; stroke: #3a7d7b"/>
     <use xlink:href="#m33121a559e" x="124.571992" y="34.092318" style="fill: #3a7d7b; stroke: #3a7d7b"/>
     <use xlink:href="#m33121a559e" x="164.235099" y="35.306343" style="fill: #3a7d7b; stroke: #3a7d7b"/>
     <use xlink:href="#m33121a559e" x="203.898207" y="36.413579" style="fill: #3a7d7b; stroke: #3a7d7b"/>
     <use xlink:href="#m33121a559e" x="243.561314" y="37.447752" style="fill: #3a7d7b; stroke: #3a7d7b"/>
    </g>
   </g>
   <g id="line2d_15">
    <path d="M 45.245777 105.032621 
L 84.908884 111.430722 
L 124.571992 107.860344 
L 164.235099 108.252324 
L 203.898207 107.842627 
L 243.561314 111.873412 
" clip-path="url(#p984569bfcd)" style="fill: none; stroke: #d4853a; stroke-linecap: square"/>
    <defs>
     <path id="m4ff6b63873" d="M 0 1.5 
C 0.397805 1.5 0.77937 1.341951 1.06066 1.06066 
C 1.341951 0.77937 1.5 0.397805 1.5 0 
C 1.5 -0.397805 1.341951 -0.77937 1.06066 -1.06066 
C 0.77937 -1.341951 0.397805 -1.5 0 -1.5 
C -0.397805 -1.5 -0.77937 -1.341951 -1.06066 -1.06066 
C -1.341951 -0.77937 -1.5 -0.397805 -1.5 0 
C -1.5 0.397805 -1.341951 0.77937 -1.06066 1.06066 
C -0.77937 1.341951 -0.397805 1.5 0 1.5 
z
" style="stroke: #d4853a"/>
    </defs>
    <g clip-path="url(#p984569bfcd)">
     <use xlink:href="#m4ff6b63873" x="45.245777" y="105.032621" style="fill: #d4853a; stroke: #d4853a"/>
     <use xlink:href="#m4ff6b63873" x="84.908884" y="111.430722" style="fill: #d4853a; stroke: #d4853a"/>
     <use xlink:href="#m4ff6b63873" x="124.571992" y="107.860344" style="fill: #d4853a; stroke: #d4853a"/>
     <use xlink:href="#m4ff6b63873" x="164.235099" y="108.252324" style="fill: #d4853a; stroke: #d4853a"/>
     <use xlink:href="#m4ff6b63873" x="203.898207" y="107.842627" style="fill: #d4853a; stroke: #d4853a"/>
     <use xlink:href="#m4ff6b63873" x="243.561314" y="111.873412" style="fill: #d4853a; stroke: #d4853a"/>
    </g>
   </g>
   <g id="line2d_16">
    <path d="M 45.245777 136.664068 
L 84.908884 140.242091 
L 124.571992 137.618838 
L 164.235099 137.834136 
L 203.898207 138.440954 
L 243.561314 140.441701 
" clip-path="url(#p984569bfcd)" style="fill: none; stroke: #7b6ba5; stroke-linecap: square"/>
    <defs>
     <path id="m67bd7e4aa0" d="M 0 1.5 
C 0.397805 1.5 0.77937 1.341951 1.06066 1.06066 
C 1.341951 0.77937 1.5 0.397805 1.5 0 
C 1.5 -0.397805 1.341951 -0.77937 1.06066 -1.06066 
C 0.77937 -1.341951 0.397805 -1.5 0 -1.5 
C -0.397805 -1.5 -0.77937 -1.341951 -1.06066 -1.06066 
C -1.341951 -0.77937 -1.5 -0.397805 -1.5 0 
C -1.5 0.397805 -1.341951 0.77937 -1.06066 1.06066 
C -0.77937 1.341951 -0.397805 1.5 0 1.5 
z
" style="stroke: #7b6ba5"/>
    </defs>
    <g clip-path="url(#p984569bfcd)">
     <use xlink:href="#m67bd7e4aa0" x="45.245777" y="136.664068" style="fill: #7b6ba5; stroke: #7b6ba5"/>
     <use xlink:href="#m67bd7e4aa0" x="84.908884" y="140.242091" style="fill: #7b6ba5; stroke: #7b6ba5"/>
     <use xlink:href="#m67bd7e4aa0" x="124.571992" y="137.618838" style="fill: #7b6ba5; stroke: #7b6ba5"/>
     <use xlink:href="#m67bd7e4aa0" x="164.235099" y="137.834136" style="fill: #7b6ba5; stroke: #7b6ba5"/>
     <use xlink:href="#m67bd7e4aa0" x="203.898207" y="138.440954" style="fill: #7b6ba5; stroke: #7b6ba5"/>
     <use xlink:href="#m67bd7e4aa0" x="243.561314" y="140.441701" style="fill: #7b6ba5; stroke: #7b6ba5"/>
    </g>
   </g>
   <g id="patch_3">
    <path d="M 35.33 163.652812 
L 35.33 18.088015 
" style="fill: none; stroke: #4a4a4a; stroke-width: 0.8; stroke-linejoin: miter; stroke-linecap: square"/>
   </g>
   <g id="patch_4">
    <path d="M 35.33 163.652812 
L 253.477091 163.652812 
" style="fill: none; stroke: #4a4a4a; stroke-width: 0.8; stroke-linejoin: miter; stroke-linecap: square"/>
   </g>
   <g id="text_16">
    <text style="fill: #3a3a3a; font: 500 8.5px 'Arial', 'Helvetica', 'DejaVu Sans', sans-serif; text-anchor: start" x="9.152349" y="13.387734" transform="rotate(-0 9.152349 13.387734)">(A)</text>
   </g>
   <g id="text_17">
    <text style="font: 8px 'Arial', 'Helvetica', 'DejaVu Sans', sans-serif; text-anchor: middle" x="144.403545" y="14.088015" transform="rotate(-0 144.403545 14.088015)">Coupled steady-state max stress</text>
   </g>
   <g id="legend_1">
    <g id="line2d_17">
     <path d="M 40.53 25.758015 
L 44.43 25.758015 
L 48.33 25.758015 
" style="fill: none; stroke: #3a7d7b; stroke-linecap: square"/>
     <g>
      <use xlink:href="#m33121a559e" x="44.43" y="25.758015" style="fill: #3a7d7b; stroke: #3a7d7b"/>
     </g>
    </g>
    <g id="text_18">
     <!-- $E_\mathrm{intercept}$ -->
     <g transform="translate(53.53 28.033015)">
      <text>
       <tspan style="font: oblique 6.5px 'DejaVu Sans'" x="0" y="-0.265625">E</tspan>
       <tspan style="font: 4.55px 'DejaVu Sans'" x="4.106934 5.371069 8.25481 10.038818 12.838135 14.708789 17.2104 20.009717 22.8979" y="0.8031249999999996">intercept</tspan>
      </text>
     </g>
    </g>
    <g id="line2d_18">
     <path d="M 40.53 35.675593 
L 44.43 35.675593 
L 48.33 35.675593 
" style="fill: none; stroke: #d4853a; stroke-linecap: square"/>
     <g>
      <use xlink:href="#m4ff6b63873" x="44.43" y="35.675593" style="fill: #d4853a; stroke: #d4853a"/>
     </g>
    </g>
    <g id="text_19">
     <!-- $\alpha_\mathrm{base}$ -->
     <g transform="translate(53.53 37.950593)">
      <text>
       <tspan style="font: oblique 6.5px 'DejaVu Sans'" x="0" y="-0.34375">α</tspan>
       <tspan style="font: 4.55px 'DejaVu Sans'" x="4.284668 7.172852 9.96106 12.331592" y="0.7249999999999996">base</tspan>
      </text>
     </g>
    </g>
    <g id="line2d_19">
     <path d="M 40.53 45.035593 
L 44.43 45.035593 
L 48.33 45.035593 
" style="fill: none; stroke: #7b6ba5; stroke-linecap: square"/>
     <g>
      <use xlink:href="#m67bd7e4aa0" x="44.43" y="45.035593" style="fill: #7b6ba5; stroke: #7b6ba5"/>
     </g>
    </g>
    <g id="text_20">
     <!-- $k_\mathrm{ref}$ -->
     <g transform="translate(53.53 47.310593)">
      <text>
       <tspan style="font: oblique 6.5px 'DejaVu Sans'" x="0" y="-0.0625">k</tspan>
       <tspan style="font: 4.55px 'DejaVu Sans'" x="3.76416 5.634814 8.434131" y="1.0062499999999996">ref</tspan>
      </text>
     </g>
    </g>
   </g>
  </g>
  <g id="axes_2">
   <g id="patch_5">
    <path d="M 283.186909 163.652812 
L 501.334 163.652812 
L 501.334 18.088015 
L 283.186909 18.088015 
z
" style="fill: #ffffff"/>
   </g>
   <g id="PolyCollection_4">
    <defs>
     <path id="m82c6f575f9" d="M 293.102686 -172.9772 
L 293.102686 -164.472209 
L 332.765793 -162.711654 
L 372.428901 -165.126097 
L 412.092008 -164.875931 
L 451.755116 -164.522391 
L 491.418223 -164.824813 
L 491.418223 -170.200502 
L 491.418223 -170.200502 
L 451.755116 -170.74909 
L 412.092008 -170.915133 
L 372.428901 -171.654445 
L 332.765793 -171.591734 
L 293.102686 -172.9772 
z
" style="stroke: #d4853a; stroke-opacity: 0.15"/>
    </defs>
    <g clip-path="url(#p2b0c59ad62)">
     <use xlink:href="#m82c6f575f9" x="0" y="197.681797" style="fill: #d4853a; fill-opacity: 0.15; stroke: #d4853a; stroke-opacity: 0.15"/>
    </g>
   </g>
   <g id="PolyCollection_5">
    <defs>
     <path id="m5ffeddbcc9" d="M 293.102686 -92.032126 
L 293.102686 -66.345983 
L 332.765793 -67.853989 
L 372.428901 -73.066952 
L 412.092008 -72.796437 
L 451.755116 -68.336457 
L 491.418223 -72.866903 
L 491.418223 -88.67027 
L 491.418223 -88.67027 
L 451.755116 -89.327743 
L 412.092008 -85.574663 
L 372.428901 -89.11579 
L 332.765793 -89.887474 
L 293.102686 -92.032126 
z
" style="stroke: #d4853a; stroke-opacity: 0.15"/>
    </defs>
    <g clip-path="url(#p2b0c59ad62)">
     <use xlink:href="#m5ffeddbcc9" x="0" y="197.681797" style="fill: #d4853a; fill-opacity: 0.15; stroke: #d4853a; stroke-opacity: 0.15"/>
    </g>
   </g>
   <g id="PolyCollection_6">
    <defs>
     <path id="m953b1515e8" d="M 293.102686 -74.408823 
L 293.102686 -40.645566 
L 332.765793 -44.783364 
L 372.428901 -42.915228 
L 412.092008 -41.824313 
L 451.755116 -46.177266 
L 491.418223 -46.195249 
L 491.418223 -63.152433 
L 491.418223 -63.152433 
L 451.755116 -64.446455 
L 412.092008 -57.749878 
L 372.428901 -63.163885 
L 332.765793 -65.075515 
L 293.102686 -74.408823 
z
" style="stroke: #3a7d7b; stroke-opacity: 0.15"/>
    </defs>
    <g clip-path="url(#p2b0c59ad62)">
     <use xlink:href="#m953b1515e8" x="0" y="197.681797" style="fill: #3a7d7b; fill-opacity: 0.15; stroke: #3a7d7b; stroke-opacity: 0.15"/>
    </g>
   </g>
   <g id="matplotlib.axis_3">
    <g id="xtick_7">
     <g id="line2d_20">
      <g>
       <use xlink:href="#m336b76491f" x="293.102686" y="163.652812" style="stroke: #000000; stroke-width: 0.8"/>
      </g>
     </g>
     <g id="text_21">
      <!-- $\mathdefault{2^{8}}$ -->
      <g transform="translate(289.532686 178.231562)">
       <text>
        <tspan style="font: 7px 'Arial'" x="0" y="-0.5995625000000011">2</tspan>
        <tspan style="font: 4.9px 'Arial'" x="4.01503" y="-5.478125">8</tspan>
       </text>
      </g>
     </g>
    </g>
    <g id="xtick_8">
     <g id="line2d_21">
      <g>
       <use xlink:href="#m336b76491f" x="332.765793" y="163.652812" style="stroke: #000000; stroke-width: 0.8"/>
      </g>
     </g>
     <g id="text_22">
      <!-- $\mathdefault{2^{9}}$ -->
      <g transform="translate(329.195793 178.231562)">
       <text>
        <tspan style="font: 7px 'Arial'" x="0" y="-0.5995625000000011">2</tspan>
        <tspan style="font: 4.9px 'Arial'" x="4.01503" y="-5.478125">9</tspan>
       </text>
      </g>
     </g>
    </g>
    <g id="xtick_9">
     <g id="line2d_22">
      <g>
       <use xlink:href="#m336b76491f" x="372.428901" y="163.652812" style="stroke: #000000; stroke-width: 0.8"/>
      </g>
     </g>
     <g id="text_23">
      <!-- $\mathdefault{2^{10}}$ -->
      <g transform="translate(367.493901 178.231562)">
       <text>
        <tspan style="font: 7px 'Arial'" x="0" y="-0.5995625000000011">2</tspan>
        <tspan style="font: 4.9px 'Arial'" x="4.01503 6.740177" y="-5.478125">10</tspan>
       </text>
      </g>
     </g>
    </g>
    <g id="xtick_10">
     <g id="line2d_23">
      <g>
       <use xlink:href="#m336b76491f" x="412.092008" y="163.652812" style="stroke: #000000; stroke-width: 0.8"/>
      </g>
     </g>
     <g id="text_24">
      <!-- $\mathdefault{2^{11}}$ -->
      <g transform="translate(407.157008 178.231562)">
       <text>
        <tspan style="font: 7px 'Arial'" x="0" y="-0.5995625000000011">2</tspan>
        <tspan style="font: 4.9px 'Arial'" x="4.01503 6.740177" y="-5.478125">11</tspan>
       </text>
      </g>
     </g>
    </g>
    <g id="xtick_11">
     <g id="line2d_24">
      <g>
       <use xlink:href="#m336b76491f" x="451.755116" y="163.652812" style="stroke: #000000; stroke-width: 0.8"/>
      </g>
     </g>
     <g id="text_25">
      <!-- $\mathdefault{2^{12}}$ -->
      <g transform="translate(446.820116 178.231562)">
       <text>
        <tspan style="font: 7px 'Arial'" x="0" y="-0.5995625000000011">2</tspan>
        <tspan style="font: 4.9px 'Arial'" x="4.01503 6.740177" y="-5.478125">12</tspan>
       </text>
      </g>
     </g>
    </g>
    <g id="xtick_12">
     <g id="line2d_25">
      <g>
       <use xlink:href="#m336b76491f" x="491.418223" y="163.652812" style="stroke: #000000; stroke-width: 0.8"/>
      </g>
     </g>
     <g id="text_26">
      <!-- $\mathdefault{2^{13}}$ -->
      <g transform="translate(486.483223 178.231562)">
       <text>
        <tspan style="font: 7px 'Arial'" x="0" y="-0.5995625000000011">2</tspan>
        <tspan style="font: 4.9px 'Arial'" x="4.01503 6.740177" y="-5.478125">13</tspan>
       </text>
      </g>
     </g>
    </g>
    <g id="text_27">
     <!-- $N_\mathrm{base}$ -->
     <g transform="translate(383.072955 188.991172)">
      <text>
       <tspan style="font: oblique 7.5px 'DejaVu Sans'" x="0" y="-0.53125">N</tspan>
       <tspan style="font: 5.25px 'DejaVu Sans'" x="5.610352 8.942871 12.160034 14.895264" y="0.7015624999999996">base</tspan>
      </text>
     </g>
    </g>
   </g>
   <g id="matplotlib.axis_4">
    <g id="ytick_8">
     <g id="line2d_26">
      <g>
       <use xlink:href="#m8abc1ecf31" x="283.186909" y="146.269648" style="stroke: #000000; stroke-width: 0.8"/>
      </g>
     </g>
     <g id="text_28">
      <text style="font: 7px 'Arial', 'Helvetica', 'DejaVu Sans', sans-serif; text-anchor: end" x="275.686909" y="148.774883" transform="rotate(-0 275.686909 148.774883)">0.0</text>
     </g>
    </g>
    <g id="ytick_9">
     <g id="line2d_27">
      <g>
       <use xlink:href="#m8abc1ecf31" x="283.186909" y="115.991472" style="stroke: #000000; stroke-width: 0.8"/>
      </g>
     </g>
     <g id="text_29">
      <text style="font: 7px 'Arial', 'Helvetica', 'DejaVu Sans', sans-serif; text-anchor: end" x="275.686909" y="118.496707" transform="rotate(-0 275.686909 118.496707)">0.2</text>
     </g>
    </g>
    <g id="ytick_10">
     <g id="line2d_28">
      <g>
       <use xlink:href="#m8abc1ecf31" x="283.186909" y="85.713297" style="stroke: #000000; stroke-width: 0.8"/>
      </g>
     </g>
     <g id="text_30">
      <text style="font: 7px 'Arial', 'Helvetica', 'DejaVu Sans', sans-serif; text-anchor: end" x="275.686909" y="88.218531" transform="rotate(-0 275.686909 88.218531)">0.4</text>
     </g>
    </g>
    <g id="ytick_11">
     <g id="line2d_29">
      <g>
       <use xlink:href="#m8abc1ecf31" x="283.186909" y="55.435121" style="stroke: #000000; stroke-width: 0.8"/>
      </g>
     </g>
     <g id="text_31">
      <text style="font: 7px 'Arial', 'Helvetica', 'DejaVu Sans', sans-serif; text-anchor: end" x="275.686909" y="57.940356" transform="rotate(-0 275.686909 57.940356)">0.6</text>
     </g>
    </g>
    <g id="ytick_12">
     <g id="line2d_30">
      <g>
       <use xlink:href="#m8abc1ecf31" x="283.186909" y="25.156945" style="stroke: #000000; stroke-width: 0.8"/>
      </g>
     </g>
     <g id="text_32">
      <text style="font: 7px 'Arial', 'Helvetica', 'DejaVu Sans', sans-serif; text-anchor: end" x="275.686909" y="27.66218" transform="rotate(-0 275.686909 27.66218)">0.8</text>
     </g>
    </g>
   </g>
   <g id="line2d_31">
    <path d="M 293.102686 28.578306 
L 332.765793 29.930503 
L 372.428901 29.814064 
L 412.092008 29.797276 
L 451.755116 29.542142 
L 491.418223 29.832243 
" clip-path="url(#p2b0c59ad62)" style="fill: none; stroke: #d4853a; stroke-linecap: square"/>
    <g clip-path="url(#p2b0c59ad62)">
     <use xlink:href="#m4ff6b63873" x="293.102686" y="28.578306" style="fill: #d4853a; stroke: #d4853a"/>
     <use xlink:href="#m4ff6b63873" x="332.765793" y="29.930503" style="fill: #d4853a; stroke: #d4853a"/>
     <use xlink:href="#m4ff6b63873" x="372.428901" y="29.814064" style="fill: #d4853a; stroke: #d4853a"/>
     <use xlink:href="#m4ff6b63873" x="412.092008" y="29.797276" style="fill: #d4853a; stroke: #d4853a"/>
     <use xlink:href="#m4ff6b63873" x="451.755116" y="29.542142" style="fill: #d4853a; stroke: #d4853a"/>
     <use xlink:href="#m4ff6b63873" x="491.418223" y="29.832243" style="fill: #d4853a; stroke: #d4853a"/>
    </g>
   </g>
   <g id="line2d_32">
    <path d="M 293.102686 118.640118 
L 332.765793 117.098534 
L 372.428901 116.641184 
L 412.092008 118.592365 
L 451.755116 116.761283 
L 491.418223 118.082633 
" clip-path="url(#p2b0c59ad62)" style="fill: none; stroke: #d4853a; stroke-linecap: square"/>
    <g clip-path="url(#p2b0c59ad62)">
     <use xlink:href="#m4ff6b63873" x="293.102686" y="118.640118" style="fill: #d4853a; stroke: #d4853a"/>
     <use xlink:href="#m4ff6b63873" x="332.765793" y="117.098534" style="fill: #d4853a; stroke: #d4853a"/>
     <use xlink:href="#m4ff6b63873" x="372.428901" y="116.641184" style="fill: #d4853a; stroke: #d4853a"/>
     <use xlink:href="#m4ff6b63873" x="412.092008" y="118.592365" style="fill: #d4853a; stroke: #d4853a"/>
     <use xlink:href="#m4ff6b63873" x="451.755116" y="116.761283" style="fill: #d4853a; stroke: #d4853a"/>
     <use xlink:href="#m4ff6b63873" x="491.418223" y="118.082633" style="fill: #d4853a; stroke: #d4853a"/>
    </g>
   </g>
   <g id="line2d_33">
    <path d="M 293.102686 143.1372 
L 332.765793 141.533189 
L 372.428901 143.815887 
L 412.092008 146.15625 
L 451.755116 141.946304 
L 491.418223 143.253637 
" clip-path="url(#p2b0c59ad62)" style="fill: none; stroke: #3a7d7b; stroke-linecap: square"/>
    <g clip-path="url(#p2b0c59ad62)">
     <use xlink:href="#m33121a559e" x="293.102686" y="143.1372" style="fill: #3a7d7b; stroke: #3a7d7b"/>
     <use xlink:href="#m33121a559e" x="332.765793" y="141.533189" style="fill: #3a7d7b; stroke: #3a7d7b"/>
     <use xlink:href="#m33121a559e" x="372.428901" y="143.815887" style="fill: #3a7d7b; stroke: #3a7d7b"/>
     <use xlink:href="#m33121a559e" x="412.092008" y="146.15625" style="fill: #3a7d7b; stroke: #3a7d7b"/>
     <use xlink:href="#m33121a559e" x="451.755116" y="141.946304" style="fill: #3a7d7b; stroke: #3a7d7b"/>
     <use xlink:href="#m33121a559e" x="491.418223" y="143.253637" style="fill: #3a7d7b; stroke: #3a7d7b"/>
    </g>
   </g>
   <g id="patch_6">
    <path d="M 283.186909 163.652812 
L 283.186909 18.088015 
" style="fill: none; stroke: #4a4a4a; stroke-width: 0.8; stroke-linejoin: miter; stroke-linecap: square"/>
   </g>
   <g id="patch_7">
    <path d="M 283.186909 163.652812 
L 501.334 163.652812 
" style="fill: none; stroke: #4a4a4a; stroke-width: 0.8; stroke-linejoin: miter; stroke-linecap: square"/>
   </g>
   <g id="text_33">
    <text style="fill: #3a3a3a; font: 500 8.5px 'Arial', 'Helvetica', 'DejaVu Sans', sans-serif; text-anchor: start" x="257.009258" y="13.387734" transform="rotate(-0 257.009258 13.387734)">(B)</text>
   </g>
   <g id="text_34">
    <!-- $k_\mathrm{eff}$ (coupled) -->
    <g transform="translate(368.340455 14.088015)">
     <text>
      <tspan style="font: oblique 8px 'DejaVu Sans'" x="0" y="-0.921875">k</tspan>
      <tspan style="font: 5.6px 'DejaVu Sans'" x="4.632812 8.078125 10.049609" y="0.390625">eff</tspan>
      <tspan style="font: 8px 'Arial'" x="12.239844 14.4625 17.126562 21.126562 25.575781 30.025 34.474219 36.251562 40.700781 45.15" y="-0.921875"> (coupled)</tspan>
     </text>
    </g>
   </g>
   <g id="legend_2">
    <g id="line2d_34">
     <path d="M 288.386909 25.665593 
L 292.286909 25.665593 
L 296.186909 25.665593 
" style="fill: none; stroke: #d4853a; stroke-linecap: square"/>
     <g>
      <use xlink:href="#m4ff6b63873" x="292.286909" y="25.665593" style="fill: #d4853a; stroke: #d4853a"/>
     </g>
    </g>
    <g id="text_35">
     <!-- $\alpha_\mathrm{base}$ -->
     <g transform="translate(301.386909 27.940593)">
      <text>
       <tspan style="font: oblique 6.5px 'DejaVu Sans'" x="0" y="-0.34375">α</tspan>
       <tspan style="font: 4.55px 'DejaVu Sans'" x="4.284668 7.172852 9.96106 12.331592" y="0.7249999999999996">base</tspan>
      </text>
     </g>
    </g>
    <g id="line2d_35">
     <path d="M 288.386909 34.860046 
L 292.286909 34.860046 
L 296.186909 34.860046 
" style="fill: none; stroke: #d4853a; stroke-linecap: square"/>
     <g>
      <use xlink:href="#m4ff6b63873" x="292.286909" y="34.860046" style="fill: #d4853a; stroke: #d4853a"/>
     </g>
    </g>
    <g id="text_36">
     <!-- $\alpha_\mathrm{slope}$ -->
     <g transform="translate(301.386909 37.135046)">
      <text>
       <tspan style="font: oblique 6.5px 'DejaVu Sans'" x="0" y="-0.34375">α</tspan>
       <tspan style="font: 4.55px 'DejaVu Sans'" x="4.284668 6.6552 7.919336 10.703101 13.591284" y="0.7249999999999996">slope</tspan>
      </text>
     </g>
    </g>
    <g id="line2d_36">
     <path d="M 288.386909 44.777624 
L 292.286909 44.777624 
L 296.186909 44.777624 
" style="fill: none; stroke: #3a7d7b; stroke-linecap: square"/>
     <g>
      <use xlink:href="#m33121a559e" x="292.286909" y="44.777624" style="fill: #3a7d7b; stroke: #3a7d7b"/>
     </g>
    </g>
    <g id="text_37">
     <!-- $\nu$ -->
     <g transform="translate(301.386909 47.052624)">
      <text>
       <tspan style="font: oblique 6.5px 'DejaVu Sans'" x="0" y="-0.4375">ν</tspan>
      </text>
     </g>
    </g>
   </g>
  </g>
 </g>
 <defs>
  <clipPath id="p984569bfcd">
   <rect x="35.33" y="18.088015" width="218.147091" height="145.564797"/>
  </clipPath>
  <clipPath id="p2b0c59ad62">
   <rect x="283.186909" y="18.088015" width="218.147091" height="145.564797"/>
  </clipPath>
 </defs>
</svg>
