<?xml version="1.0" encoding="utf-8" standalone="no"?>
<!DOCTYPE svg PUBLIC "-//W3C//DTD SVG 1.1//EN"
  "http://www.w3.org/Graphics/SVG/1.1/DTD/svg11.dtd">
<svg xmlns:xlink="http://www.w3.org/1999/xlink" width="460.8pt" height="236.16pt" viewBox="0 0 460.8 236.16" xmlns="http://www.w3.org/2000/svg" version="1.1">
 <metadata>
  <rdf:RDF xmlns:dc="http://purl.org/dc/elements/1.1/" xmlns:cc="http://creativecommons.org/ns#" xmlns:rdf="http://www.w3.org/1999/02/22-rdf-syntax-ns#">
   <cc:Work>
    <dc:type rdf:resource="http://purl.org/dc/dcmitype/StillImage"/>
    <dc:date>2026-04-04T00:02:22.843195</dc:date>
    <dc:format>image/svg+xml</dc:format>
    <dc:creator>
     <cc:Agent>
      <dc:title>Matplotlib v3.8.4, https://matplotlib.org/</dc:title>
     </cc:Agent>
    </dc:creator>
   </cc:Work>
  </rdf:RDF>
 </metadata>
 <defs>
  <style type="text/css">*{stroke-linejoin: round; stroke-linecap: butt}</style>
 </defs>
 <g id="figure_1">
  <g id="patch_1">
   <path d="M 0 236.16 
L 460.8 236.16 
L 460.8 0 
L 0 0 
z
" style="fill: #ffffff"/>
  </g>
  <g id="axes_1">
   <g id="text_1">
    <!-- Figure A8 | Training curves (NLL vs epoch) -->
    <g transform="translate(75.417656 99.338844) scale(0.13 -0.13)">
     <defs>
      <path id="DejaVuSans-Bold-46" d="M 588 4666 
L 3834 4666 
L 3834 3756 
L 1791 3756 
L 1791 2888 
L 3713 2888 
L 3713 1978 
L 1791 1978 
L 1791 0 
L 588 0 
L 588 4666 
z
" transform="scale(0.015625)"/>
      <path id="DejaVuSans-Bold-69" d="M 538 3500 
L 1656 3500 
L 1656 0 
L 538 0 
L 538 3500 
z
M 538 4863 
L 1656 4863 
L 1656 3950 
L 538 3950 
L 538 4863 
z
" transform="scale(0.015625)"/>
      <path id="DejaVuSans-Bold-67" d="M 2919 594 
Q 2688 288 2409 144 
Q 2131 0 1766 0 
Q 1125 0 706 504 
Q 288 1009 288 1791 
Q 288 2575 706 3076 
Q 1125 3578 1766 3578 
Q 2131 3578 2409 3434 
Q 2688 3291 2919 2981 
L 2919 3500 
L 4044 3500 
L 4044 353 
Q 4044 -491 3511 -936 
Q 2978 -1381 1966 -1381 
Q 1638 -1381 1331 -1331 
Q 1025 -1281 716 -1178 
L 716 -306 
Q 1009 -475 1290 -558 
Q 1572 -641 1856 -641 
Q 2406 -641 2662 -400 
Q 2919 -159 2919 353 
L 2919 594 
z
M 2181 2772 
Q 1834 2772 1640 2515 
Q 1447 2259 1447 1791 
Q 1447 1309 1634 1061 
Q 1822 813 2181 813 
Q 2531 813 2725 1069 
Q 2919 1325 2919 1791 
Q 2919 2259 2725 2515 
Q 2531 2772 2181 2772 
z
" transform="scale(0.015625)"/>
      <path id="DejaVuSans-Bold-75" d="M 500 1363 
L 500 3500 
L 1625 3500 
L 1625 3150 
Q 1625 2866 1622 2436 
Q 1619 2006 1619 1863 
Q 1619 1441 1641 1255 
Q 1663 1069 1716 984 
Q 1784 875 1895 815 
Q 2006 756 2150 756 
Q 2500 756 2700 1025 
Q 2900 1294 2900 1772 
L 2900 3500 
L 4019 3500 
L 4019 0 
L 2900 0 
L 2900 506 
Q 2647 200 2364 54 
Q 2081 -91 1741 -91 
Q 1134 -91 817 281 
Q 500 653 500 1363 
z
" transform="scale(0.015625)"/>
      <path id="DejaVuSans-Bold-72" d="M 3138 2547 
Q 2991 2616 2845 2648 
Q 2700 2681 2553 2681 
Q 2122 2681 1889 2404 
Q 1656 2128 1656 1613 
L 1656 0 
L 538 0 
L 538 3500 
L 1656 3500 
L 1656 2925 
Q 1872 3269 2151 3426 
Q 2431 3584 2822 3584 
Q 2878 3584 2943 3579 
Q 3009 3575 3134 3559 
L 3138 2547 
z
" transform="scale(0.015625)"/>
      <path id="DejaVuSans-Bold-65" d="M 4031 1759 
L 4031 1441 
L 1416 1441 
Q 1456 1047 1700 850 
Q 1944 653 2381 653 
Q 2734 653 3104 758 
Q 3475 863 3866 1075 
L 3866 213 
Q 3469 63 3072 -14 
Q 2675 -91 2278 -91 
Q 1328 -91 801 392 
Q 275 875 275 1747 
Q 275 2603 792 3093 
Q 1309 3584 2216 3584 
Q 3041 3584 3536 3087 
Q 4031 2591 4031 1759 
z
M 2881 2131 
Q 2881 2450 2695 2645 
Q 2509 2841 2209 2841 
Q 1884 2841 1681 2658 
Q 1478 2475 1428 2131 
L 2881 2131 
z
" transform="scale(0.015625)"/>
      <path id="DejaVuSans-Bold-20" transform="scale(0.015625)"/>
      <path id="DejaVuSans-Bold-41" d="M 3419 850 
L 1538 850 
L 1241 0 
L 31 0 
L 1759 4666 
L 3194 4666 
L 4922 0 
L 3713 0 
L 3419 850 
z
M 1838 1716 
L 3116 1716 
L 2478 3572 
L 1838 1716 
z
" transform="scale(0.015625)"/>
      <path id="DejaVuSans-Bold-38" d="M 2228 2088 
Q 1891 2088 1709 1903 
Q 1528 1719 1528 1375 
Q 1528 1031 1709 848 
Q 1891 666 2228 666 
Q 2563 666 2741 848 
Q 2919 1031 2919 1375 
Q 2919 1722 2741 1905 
Q 2563 2088 2228 2088 
z
M 1350 2484 
Q 925 2613 709 2878 
Q 494 3144 494 3541 
Q 494 4131 934 4440 
Q 1375 4750 2228 4750 
Q 3075 4750 3515 4442 
Q 3956 4134 3956 3541 
Q 3956 3144 3739 2878 
Q 3522 2613 3097 2484 
Q 3572 2353 3814 2058 
Q 4056 1763 4056 1313 
Q 4056 619 3595 264 
Q 3134 -91 2228 -91 
Q 1319 -91 855 264 
Q 391 619 391 1313 
Q 391 1763 633 2058 
Q 875 2353 1350 2484 
z
M 1631 3419 
Q 1631 3141 1786 2991 
Q 1941 2841 2228 2841 
Q 2509 2841 2662 2991 
Q 2816 3141 2816 3419 
Q 2816 3697 2662 3845 
Q 2509 3994 2228 3994 
Q 1941 3994 1786 3844 
Q 1631 3694 1631 3419 
z
" transform="scale(0.015625)"/>
      <path id="DejaVuSans-Bold-7c" d="M 1522 4891 
L 1522 -1509 
L 813 -1509 
L 813 4891 
L 1522 4891 
z
" transform="scale(0.015625)"/>
      <path id="DejaVuSans-Bold-54" d="M 31 4666 
L 4331 4666 
L 4331 3756 
L 2784 3756 
L 2784 0 
L 1581 0 
L 1581 3756 
L 31 3756 
L 31 4666 
z
" transform="scale(0.015625)"/>
      <path id="DejaVuSans-Bold-61" d="M 2106 1575 
Q 1756 1575 1579 1456 
Q 1403 1338 1403 1106 
Q 1403 894 1545 773 
Q 1688 653 1941 653 
Q 2256 653 2472 879 
Q 2688 1106 2688 1447 
L 2688 1575 
L 2106 1575 
z
M 3816 1997 
L 3816 0 
L 2688 0 
L 2688 519 
Q 2463 200 2181 54 
Q 1900 -91 1497 -91 
Q 953 -91 614 226 
Q 275 544 275 1050 
Q 275 1666 698 1953 
Q 1122 2241 2028 2241 
L 2688 2241 
L 2688 2328 
Q 2688 2594 2478 2717 
Q 2269 2841 1825 2841 
Q 1466 2841 1156 2769 
Q 847 2697 581 2553 
L 581 3406 
Q 941 3494 1303 3539 
Q 1666 3584 2028 3584 
Q 2975 3584 3395 3211 
Q 3816 2838 3816 1997 
z
" transform="scale(0.015625)"/>
      <path id="DejaVuSans-Bold-6e" d="M 4056 2131 
L 4056 0 
L 2931 0 
L 2931 347 
L 2931 1631 
Q 2931 2084 2911 2256 
Q 2891 2428 2841 2509 
Q 2775 2619 2662 2680 
Q 2550 2741 2406 2741 
Q 2056 2741 1856 2470 
Q 1656 2200 1656 1722 
L 1656 0 
L 538 0 
L 538 3500 
L 1656 3500 
L 1656 2988 
Q 1909 3294 2193 3439 
Q 2478 3584 2822 3584 
Q 3428 3584 3742 3212 
Q 4056 2841 4056 2131 
z
" transform="scale(0.015625)"/>
      <path id="DejaVuSans-Bold-63" d="M 3366 3391 
L 3366 2478 
Q 3138 2634 2908 2709 
Q 2678 2784 2431 2784 
Q 1963 2784 1702 2511 
Q 1441 2238 1441 1747 
Q 1441 1256 1702 982 
Q 1963 709 2431 709 
Q 2694 709 2930 787 
Q 3166 866 3366 1019 
L 3366 103 
Q 3103 6 2833 -42 
Q 2563 -91 2291 -91 
Q 1344 -91 809 395 
Q 275 881 275 1747 
Q 275 2613 809 3098 
Q 1344 3584 2291 3584 
Q 2566 3584 2833 3536 
Q 3100 3488 3366 3391 
z
" transform="scale(0.015625)"/>
      <path id="DejaVuSans-Bold-76" d="M 97 3500 
L 1216 3500 
L 2088 1081 
L 2956 3500 
L 4078 3500 
L 2700 0 
L 1472 0 
L 97 3500 
z
" transform="scale(0.015625)"/>
      <path id="DejaVuSans-Bold-73" d="M 3272 3391 
L 3272 2541 
Q 2913 2691 2578 2766 
Q 2244 2841 1947 2841 
Q 1628 2841 1473 2761 
Q 1319 2681 1319 2516 
Q 1319 2381 1436 2309 
Q 1553 2238 1856 2203 
L 2053 2175 
Q 2913 2066 3209 1816 
Q 3506 1566 3506 1031 
Q 3506 472 3093 190 
Q 2681 -91 1863 -91 
Q 1516 -91 1145 -36 
Q 775 19 384 128 
L 384 978 
Q 719 816 1070 734 
Q 1422 653 1784 653 
Q 2113 653 2278 743 
Q 2444 834 2444 1013 
Q 2444 1163 2330 1236 
Q 2216 1309 1875 1350 
L 1678 1375 
Q 931 1469 631 1722 
Q 331 1975 331 2491 
Q 331 3047 712 3315 
Q 1094 3584 1881 3584 
Q 2191 3584 2531 3537 
Q 2872 3491 3272 3391 
z
" transform="scale(0.015625)"/>
      <path id="DejaVuSans-Bold-28" d="M 2413 -844 
L 1484 -844 
Q 1006 -72 778 623 
Q 550 1319 550 2003 
Q 550 2688 779 3389 
Q 1009 4091 1484 4856 
L 2413 4856 
Q 2013 4116 1813 3408 
Q 1613 2700 1613 2009 
Q 1613 1319 1811 609 
Q 2009 -100 2413 -844 
z
" transform="scale(0.015625)"/>
      <path id="DejaVuSans-Bold-4e" d="M 588 4666 
L 1931 4666 
L 3628 1466 
L 3628 4666 
L 4769 4666 
L 4769 0 
L 3425 0 
L 1728 3200 
L 1728 0 
L 588 0 
L 588 4666 
z
" transform="scale(0.015625)"/>
      <path id="DejaVuSans-Bold-4c" d="M 588 4666 
L 1791 4666 
L 1791 909 
L 3903 909 
L 3903 0 
L 588 0 
L 588 4666 
z
" transform="scale(0.015625)"/>
      <path id="DejaVuSans-Bold-70" d="M 1656 506 
L 1656 -1331 
L 538 -1331 
L 538 3500 
L 1656 3500 
L 1656 2988 
Q 1888 3294 2169 3439 
Q 2450 3584 2816 3584 
Q 3463 3584 3878 3070 
Q 4294 2556 4294 1747 
Q 4294 938 3878 423 
Q 3463 -91 2816 -91 
Q 2450 -91 2169 54 
Q 1888 200 1656 506 
z
M 2400 2772 
Q 2041 2772 1848 2508 
Q 1656 2244 1656 1747 
Q 1656 1250 1848 986 
Q 2041 722 2400 722 
Q 2759 722 2948 984 
Q 3138 1247 3138 1747 
Q 3138 2247 2948 2509 
Q 2759 2772 2400 2772 
z
" transform="scale(0.015625)"/>
      <path id="DejaVuSans-Bold-6f" d="M 2203 2784 
Q 1831 2784 1636 2517 
Q 1441 2250 1441 1747 
Q 1441 1244 1636 976 
Q 1831 709 2203 709 
Q 2569 709 2762 976 
Q 2956 1244 2956 1747 
Q 2956 2250 2762 2517 
Q 2569 2784 2203 2784 
z
M 2203 3584 
Q 3106 3584 3614 3096 
Q 4122 2609 4122 1747 
Q 4122 884 3614 396 
Q 3106 -91 2203 -91 
Q 1297 -91 786 396 
Q 275 884 275 1747 
Q 275 2609 786 3096 
Q 1297 3584 2203 3584 
z
" transform="scale(0.015625)"/>
      <path id="DejaVuSans-Bold-68" d="M 4056 2131 
L 4056 0 
L 2931 0 
L 2931 347 
L 2931 1625 
Q 2931 2084 2911 2256 
Q 2891 2428 2841 2509 
Q 2775 2619 2662 2680 
Q 2550 2741 2406 2741 
Q 2056 2741 1856 2470 
Q 1656 2200 1656 1722 
L 1656 0 
L 538 0 
L 538 4863 
L 1656 4863 
L 1656 2988 
Q 1909 3294 2193 3439 
Q 2478 3584 2822 3584 
Q 3428 3584 3742 3212 
Q 4056 2841 4056 2131 
z
" transform="scale(0.015625)"/>
      <path id="DejaVuSans-Bold-29" d="M 513 -844 
Q 913 -100 1113 609 
Q 1313 1319 1313 2009 
Q 1313 2700 1113 3408 
Q 913 4116 513 4856 
L 1441 4856 
Q 1916 4091 2145 3389 
Q 2375 2688 2375 2003 
Q 2375 1319 2147 623 
Q 1919 -72 1441 -844 
L 513 -844 
z
" transform="scale(0.015625)"/>
     </defs>
     <use xlink:href="#DejaVuSans-Bold-46"/>
     <use xlink:href="#DejaVuSans-Bold-69" x="68.310547"/>
     <use xlink:href="#DejaVuSans-Bold-67" x="102.587891"/>
     <use xlink:href="#DejaVuSans-Bold-75" x="174.169922"/>
     <use xlink:href="#DejaVuSans-Bold-72" x="245.361328"/>
     <use xlink:href="#DejaVuSans-Bold-65" x="294.677734"/>
     <use xlink:href="#DejaVuSans-Bold-20" x="362.5"/>
     <use xlink:href="#DejaVuSans-Bold-41" x="397.314453"/>
     <use xlink:href="#DejaVuSans-Bold-38" x="474.707031"/>
     <use xlink:href="#DejaVuSans-Bold-20" x="544.287109"/>
     <use xlink:href="#DejaVuSans-Bold-7c" x="579.101562"/>
     <use xlink:href="#DejaVuSans-Bold-20" x="615.625"/>
     <use xlink:href="#DejaVuSans-Bold-54" x="650.439453"/>
     <use xlink:href="#DejaVuSans-Bold-72" x="707.652344"/>
     <use xlink:href="#DejaVuSans-Bold-61" x="756.96875"/>
     <use xlink:href="#DejaVuSans-Bold-69" x="824.449219"/>
     <use xlink:href="#DejaVuSans-Bold-6e" x="858.726562"/>
     <use xlink:href="#DejaVuSans-Bold-69" x="929.917969"/>
     <use xlink:href="#DejaVuSans-Bold-6e" x="964.195312"/>
     <use xlink:href="#DejaVuSans-Bold-67" x="1035.386719"/>
     <use xlink:href="#DejaVuSans-Bold-20" x="1106.96875"/>
     <use xlink:href="#DejaVuSans-Bold-63" x="1141.783203"/>
     <use xlink:href="#DejaVuSans-Bold-75" x="1201.060547"/>
     <use xlink:href="#DejaVuSans-Bold-72" x="1272.251953"/>
     <use xlink:href="#DejaVuSans-Bold-76" x="1321.568359"/>
     <use xlink:href="#DejaVuSans-Bold-65" x="1386.753906"/>
     <use xlink:href="#DejaVuSans-Bold-73" x="1454.576172"/>
     <use xlink:href="#DejaVuSans-Bold-20" x="1514.097656"/>
     <use xlink:href="#DejaVuSans-Bold-28" x="1548.912109"/>
     <use xlink:href="#DejaVuSans-Bold-4e" x="1594.615234"/>
     <use xlink:href="#DejaVuSans-Bold-4c" x="1678.306641"/>
     <use xlink:href="#DejaVuSans-Bold-4c" x="1742.027344"/>
     <use xlink:href="#DejaVuSans-Bold-20" x="1805.748047"/>
     <use xlink:href="#DejaVuSans-Bold-76" x="1840.5625"/>
     <use xlink:href="#DejaVuSans-Bold-73" x="1905.748047"/>
     <use xlink:href="#DejaVuSans-Bold-20" x="1965.269531"/>
     <use xlink:href="#DejaVuSans-Bold-65" x="2000.083984"/>
     <use xlink:href="#DejaVuSans-Bold-70" x="2067.90625"/>
     <use xlink:href="#DejaVuSans-Bold-6f" x="2139.488281"/>
     <use xlink:href="#DejaVuSans-Bold-63" x="2208.189453"/>
     <use xlink:href="#DejaVuSans-Bold-68" x="2267.466797"/>
     <use xlink:href="#DejaVuSans-Bold-29" x="2338.658203"/>
    </g>
   </g>
   <g id="text_2">
    <g id="patch_2">
     <path d="M 54.039062 167.169906 
L 406.760937 167.169906 
Q 411.760937 167.169906 411.760937 162.169906 
L 411.760937 118.620219 
Q 411.760937 113.620219 406.760937 113.620219 
L 54.039062 113.620219 
Q 49.039062 113.620219 49.039062 118.620219 
L 49.039062 162.169906 
Q 49.039062 167.169906 54.039062 167.169906 
z
" style="fill: #fef9e7; stroke: #c0392b; stroke-width: 1.2; stroke-linejoin: miter"/>
    </g>
    <!-- 【缺数据 — training history CSV not saved during model training. -->
    <g style="fill: #c0392b" transform="translate(76.717187 125.940531) scale(0.1 -0.1)">
     <defs>
      <path id="DejaVuSans-3010" d="M 319 -1131 
L 319 4513 
L 3519 4513 
L 3519 -1131 
L 319 -1131 
z
M 678 -775 
L 3163 -775 
L 3163 4153 
L 678 4153 
L 678 -775 
z
" transform="scale(0.015625)"/>
      <path id="DejaVuSans-7f3a" d="M 319 -1131 
L 319 4513 
L 3519 4513 
L 3519 -1131 
L 319 -1131 
z
M 678 -775 
L 3163 -775 
L 3163 4153 
L 678 4153 
L 678 -775 
z
" transform="scale(0.015625)"/>
      <path id="DejaVuSans-6570" d="M 319 -1131 
L 319 4513 
L 3519 4513 
L 3519 -1131 
L 319 -1131 
z
M 678 -775 
L 3163 -775 
L 3163 4153 
L 678 4153 
L 678 -775 
z
" transform="scale(0.015625)"/>
      <path id="DejaVuSans-636e" d="M 319 -1131 
L 319 4513 
L 3519 4513 
L 3519 -1131 
L 319 -1131 
z
M 678 -775 
L 3163 -775 
L 3163 4153 
L 678 4153 
L 678 -775 
z
" transform="scale(0.015625)"/>
      <path id="DejaVuSans-20" transform="scale(0.015625)"/>
      <path id="DejaVuSans-2014" d="M 313 1978 
L 6088 1978 
L 6088 1528 
L 313 1528 
L 313 1978 
z
" transform="scale(0.015625)"/>
      <path id="DejaVuSans-74" d="M 1172 4494 
L 1172 3500 
L 2356 3500 
L 2356 3053 
L 1172 3053 
L 1172 1153 
Q 1172 725 1289 603 
Q 1406 481 1766 481 
L 2356 481 
L 2356 0 
L 1766 0 
Q 1100 0 847 248 
Q 594 497 594 1153 
L 594 3053 
L 172 3053 
L 172 3500 
L 594 3500 
L 594 4494 
L 1172 4494 
z
" transform="scale(0.015625)"/>
      <path id="DejaVuSans-72" d="M 2631 2963 
Q 2534 3019 2420 3045 
Q 2306 3072 2169 3072 
Q 1681 3072 1420 2755 
Q 1159 2438 1159 1844 
L 1159 0 
L 581 0 
L 581 3500 
L 1159 3500 
L 1159 2956 
Q 1341 3275 1631 3429 
Q 1922 3584 2338 3584 
Q 2397 3584 2469 3576 
Q 2541 3569 2628 3553 
L 2631 2963 
z
" transform="scale(0.015625)"/>
      <path id="DejaVuSans-61" d="M 2194 1759 
Q 1497 1759 1228 1600 
Q 959 1441 959 1056 
Q 959 750 1161 570 
Q 1363 391 1709 391 
Q 2188 391 2477 730 
Q 2766 1069 2766 1631 
L 2766 1759 
L 2194 1759 
z
M 3341 1997 
L 3341 0 
L 2766 0 
L 2766 531 
Q 2569 213 2275 61 
Q 1981 -91 1556 -91 
Q 1019 -91 701 211 
Q 384 513 384 1019 
Q 384 1609 779 1909 
Q 1175 2209 1959 2209 
L 2766 2209 
L 2766 2266 
Q 2766 2663 2505 2880 
Q 2244 3097 1772 3097 
Q 1472 3097 1187 3025 
Q 903 2953 641 2809 
L 641 3341 
Q 956 3463 1253 3523 
Q 1550 3584 1831 3584 
Q 2591 3584 2966 3190 
Q 3341 2797 3341 1997 
z
" transform="scale(0.015625)"/>
      <path id="DejaVuSans-69" d="M 603 3500 
L 1178 3500 
L 1178 0 
L 603 0 
L 603 3500 
z
M 603 4863 
L 1178 4863 
L 1178 4134 
L 603 4134 
L 603 4863 
z
" transform="scale(0.015625)"/>
      <path id="DejaVuSans-6e" d="M 3513 2113 
L 3513 0 
L 2938 0 
L 2938 2094 
Q 2938 2591 2744 2837 
Q 2550 3084 2163 3084 
Q 1697 3084 1428 2787 
Q 1159 2491 1159 1978 
L 1159 0 
L 581 0 
L 581 3500 
L 1159 3500 
L 1159 2956 
Q 1366 3272 1645 3428 
Q 1925 3584 2291 3584 
Q 2894 3584 3203 3211 
Q 3513 2838 3513 2113 
z
" transform="scale(0.015625)"/>
      <path id="DejaVuSans-67" d="M 2906 1791 
Q 2906 2416 2648 2759 
Q 2391 3103 1925 3103 
Q 1463 3103 1205 2759 
Q 947 2416 947 1791 
Q 947 1169 1205 825 
Q 1463 481 1925 481 
Q 2391 481 2648 825 
Q 2906 1169 2906 1791 
z
M 3481 434 
Q 3481 -459 3084 -895 
Q 2688 -1331 1869 -1331 
Q 1566 -1331 1297 -1286 
Q 1028 -1241 775 -1147 
L 775 -588 
Q 1028 -725 1275 -790 
Q 1522 -856 1778 -856 
Q 2344 -856 2625 -561 
Q 2906 -266 2906 331 
L 2906 616 
Q 2728 306 2450 153 
Q 2172 0 1784 0 
Q 1141 0 747 490 
Q 353 981 353 1791 
Q 353 2603 747 3093 
Q 1141 3584 1784 3584 
Q 2172 3584 2450 3431 
Q 2728 3278 2906 2969 
L 2906 3500 
L 3481 3500 
L 3481 434 
z
" transform="scale(0.015625)"/>
      <path id="DejaVuSans-68" d="M 3513 2113 
L 3513 0 
L 2938 0 
L 2938 2094 
Q 2938 2591 2744 2837 
Q 2550 3084 2163 3084 
Q 1697 3084 1428 2787 
Q 1159 2491 1159 1978 
L 1159 0 
L 581 0 
L 581 4863 
L 1159 4863 
L 1159 2956 
Q 1366 3272 1645 3428 
Q 1925 3584 2291 3584 
Q 2894 3584 3203 3211 
Q 3513 2838 3513 2113 
z
" transform="scale(0.015625)"/>
      <path id="DejaVuSans-73" d="M 2834 3397 
L 2834 2853 
Q 2591 2978 2328 3040 
Q 2066 3103 1784 3103 
Q 1356 3103 1142 2972 
Q 928 2841 928 2578 
Q 928 2378 1081 2264 
Q 1234 2150 1697 2047 
L 1894 2003 
Q 2506 1872 2764 1633 
Q 3022 1394 3022 966 
Q 3022 478 2636 193 
Q 2250 -91 1575 -91 
Q 1294 -91 989 -36 
Q 684 19 347 128 
L 347 722 
Q 666 556 975 473 
Q 1284 391 1588 391 
Q 1994 391 2212 530 
Q 2431 669 2431 922 
Q 2431 1156 2273 1281 
Q 2116 1406 1581 1522 
L 1381 1569 
Q 847 1681 609 1914 
Q 372 2147 372 2553 
Q 372 3047 722 3315 
Q 1072 3584 1716 3584 
Q 2034 3584 2315 3537 
Q 2597 3491 2834 3397 
z
" transform="scale(0.015625)"/>
      <path id="DejaVuSans-6f" d="M 1959 3097 
Q 1497 3097 1228 2736 
Q 959 2375 959 1747 
Q 959 1119 1226 758 
Q 1494 397 1959 397 
Q 2419 397 2687 759 
Q 2956 1122 2956 1747 
Q 2956 2369 2687 2733 
Q 2419 3097 1959 3097 
z
M 1959 3584 
Q 2709 3584 3137 3096 
Q 3566 2609 3566 1747 
Q 3566 888 3137 398 
Q 2709 -91 1959 -91 
Q 1206 -91 779 398 
Q 353 888 353 1747 
Q 353 2609 779 3096 
Q 1206 3584 1959 3584 
z
" transform="scale(0.015625)"/>
      <path id="DejaVuSans-79" d="M 2059 -325 
Q 1816 -950 1584 -1140 
Q 1353 -1331 966 -1331 
L 506 -1331 
L 506 -850 
L 844 -850 
Q 1081 -850 1212 -737 
Q 1344 -625 1503 -206 
L 1606 56 
L 191 3500 
L 800 3500 
L 1894 763 
L 2988 3500 
L 3597 3500 
L 2059 -325 
z
" transform="scale(0.015625)"/>
      <path id="DejaVuSans-43" d="M 4122 4306 
L 4122 3641 
Q 3803 3938 3442 4084 
Q 3081 4231 2675 4231 
Q 1875 4231 1450 3742 
Q 1025 3253 1025 2328 
Q 1025 1406 1450 917 
Q 1875 428 2675 428 
Q 3081 428 3442 575 
Q 3803 722 4122 1019 
L 4122 359 
Q 3791 134 3420 21 
Q 3050 -91 2638 -91 
Q 1578 -91 968 557 
Q 359 1206 359 2328 
Q 359 3453 968 4101 
Q 1578 4750 2638 4750 
Q 3056 4750 3426 4639 
Q 3797 4528 4122 4306 
z
" transform="scale(0.015625)"/>
      <path id="DejaVuSans-53" d="M 3425 4513 
L 3425 3897 
Q 3066 4069 2747 4153 
Q 2428 4238 2131 4238 
Q 1616 4238 1336 4038 
Q 1056 3838 1056 3469 
Q 1056 3159 1242 3001 
Q 1428 2844 1947 2747 
L 2328 2669 
Q 3034 2534 3370 2195 
Q 3706 1856 3706 1288 
Q 3706 609 3251 259 
Q 2797 -91 1919 -91 
Q 1588 -91 1214 -16 
Q 841 59 441 206 
L 441 856 
Q 825 641 1194 531 
Q 1563 422 1919 422 
Q 2459 422 2753 634 
Q 3047 847 3047 1241 
Q 3047 1584 2836 1778 
Q 2625 1972 2144 2069 
L 1759 2144 
Q 1053 2284 737 2584 
Q 422 2884 422 3419 
Q 422 4038 858 4394 
Q 1294 4750 2059 4750 
Q 2388 4750 2728 4690 
Q 3069 4631 3425 4513 
z
" transform="scale(0.015625)"/>
      <path id="DejaVuSans-56" d="M 1831 0 
L 50 4666 
L 709 4666 
L 2188 738 
L 3669 4666 
L 4325 4666 
L 2547 0 
L 1831 0 
z
" transform="scale(0.015625)"/>
      <path id="DejaVuSans-76" d="M 191 3500 
L 800 3500 
L 1894 563 
L 2988 3500 
L 3597 3500 
L 2284 0 
L 1503 0 
L 191 3500 
z
" transform="scale(0.015625)"/>
      <path id="DejaVuSans-65" d="M 3597 1894 
L 3597 1613 
L 953 1613 
Q 991 1019 1311 708 
Q 1631 397 2203 397 
Q 2534 397 2845 478 
Q 3156 559 3463 722 
L 3463 178 
Q 3153 47 2828 -22 
Q 2503 -91 2169 -91 
Q 1331 -91 842 396 
Q 353 884 353 1716 
Q 353 2575 817 3079 
Q 1281 3584 2069 3584 
Q 2775 3584 3186 3129 
Q 3597 2675 3597 1894 
z
M 3022 2063 
Q 3016 2534 2758 2815 
Q 2500 3097 2075 3097 
Q 1594 3097 1305 2825 
Q 1016 2553 972 2059 
L 3022 2063 
z
" transform="scale(0.015625)"/>
      <path id="DejaVuSans-64" d="M 2906 2969 
L 2906 4863 
L 3481 4863 
L 3481 0 
L 2906 0 
L 2906 525 
Q 2725 213 2448 61 
Q 2172 -91 1784 -91 
Q 1150 -91 751 415 
Q 353 922 353 1747 
Q 353 2572 751 3078 
Q 1150 3584 1784 3584 
Q 2172 3584 2448 3432 
Q 2725 3281 2906 2969 
z
M 947 1747 
Q 947 1113 1208 752 
Q 1469 391 1925 391 
Q 2381 391 2643 752 
Q 2906 1113 2906 1747 
Q 2906 2381 2643 2742 
Q 2381 3103 1925 3103 
Q 1469 3103 1208 2742 
Q 947 2381 947 1747 
z
" transform="scale(0.015625)"/>
      <path id="DejaVuSans-75" d="M 544 1381 
L 544 3500 
L 1119 3500 
L 1119 1403 
Q 1119 906 1312 657 
Q 1506 409 1894 409 
Q 2359 409 2629 706 
Q 2900 1003 2900 1516 
L 2900 3500 
L 3475 3500 
L 3475 0 
L 2900 0 
L 2900 538 
Q 2691 219 2414 64 
Q 2138 -91 1772 -91 
Q 1169 -91 856 284 
Q 544 659 544 1381 
z
M 1991 3584 
L 1991 3584 
z
" transform="scale(0.015625)"/>
      <path id="DejaVuSans-6d" d="M 3328 2828 
Q 3544 3216 3844 3400 
Q 4144 3584 4550 3584 
Q 5097 3584 5394 3201 
Q 5691 2819 5691 2113 
L 5691 0 
L 5113 0 
L 5113 2094 
Q 5113 2597 4934 2840 
Q 4756 3084 4391 3084 
Q 3944 3084 3684 2787 
Q 3425 2491 3425 1978 
L 3425 0 
L 2847 0 
L 2847 2094 
Q 2847 2600 2669 2842 
Q 2491 3084 2119 3084 
Q 1678 3084 1418 2786 
Q 1159 2488 1159 1978 
L 1159 0 
L 581 0 
L 581 3500 
L 1159 3500 
L 1159 2956 
Q 1356 3278 1631 3431 
Q 1906 3584 2284 3584 
Q 2666 3584 2933 3390 
Q 3200 3197 3328 2828 
z
" transform="scale(0.015625)"/>
      <path id="DejaVuSans-6c" d="M 603 4863 
L 1178 4863 
L 1178 0 
L 603 0 
L 603 4863 
z
" transform="scale(0.015625)"/>
      <path id="DejaVuSans-2e" d="M 684 794 
L 1344 794 
L 1344 0 
L 684 0 
L 684 794 
z
" transform="scale(0.015625)"/>
     </defs>
     <use xlink:href="#DejaVuSans-3010"/>
     <use xlink:href="#DejaVuSans-7f3a" x="60.009766"/>
     <use xlink:href="#DejaVuSans-6570" x="120.019531"/>
     <use xlink:href="#DejaVuSans-636e" x="180.029297"/>
     <use xlink:href="#DejaVuSans-20" x="240.039062"/>
     <use xlink:href="#DejaVuSans-2014" x="271.826172"/>
     <use xlink:href="#DejaVuSans-20" x="371.826172"/>
     <use xlink:href="#DejaVuSans-74" x="403.613281"/>
     <use xlink:href="#DejaVuSans-72" x="442.822266"/>
     <use xlink:href="#DejaVuSans-61" x="483.935547"/>
     <use xlink:href="#DejaVuSans-69" x="545.214844"/>
     <use xlink:href="#DejaVuSans-6e" x="572.998047"/>
     <use xlink:href="#DejaVuSans-69" x="636.376953"/>
     <use xlink:href="#DejaVuSans-6e" x="664.160156"/>
     <use xlink:href="#DejaVuSans-67" x="727.539062"/>
     <use xlink:href="#DejaVuSans-20" x="791.015625"/>
     <use xlink:href="#DejaVuSans-68" x="822.802734"/>
     <use xlink:href="#DejaVuSans-69" x="886.181641"/>
     <use xlink:href="#DejaVuSans-73" x="913.964844"/>
     <use xlink:href="#DejaVuSans-74" x="966.064453"/>
     <use xlink:href="#DejaVuSans-6f" x="1005.273438"/>
     <use xlink:href="#DejaVuSans-72" x="1066.455078"/>
     <use xlink:href="#DejaVuSans-79" x="1107.568359"/>
     <use xlink:href="#DejaVuSans-20" x="1166.748047"/>
     <use xlink:href="#DejaVuSans-43" x="1198.535156"/>
     <use xlink:href="#DejaVuSans-53" x="1268.359375"/>
     <use xlink:href="#DejaVuSans-56" x="1331.835938"/>
     <use xlink:href="#DejaVuSans-20" x="1400.244141"/>
     <use xlink:href="#DejaVuSans-6e" x="1432.03125"/>
     <use xlink:href="#DejaVuSans-6f" x="1495.410156"/>
     <use xlink:href="#DejaVuSans-74" x="1556.591797"/>
     <use xlink:href="#DejaVuSans-20" x="1595.800781"/>
     <use xlink:href="#DejaVuSans-73" x="1627.587891"/>
     <use xlink:href="#DejaVuSans-61" x="1679.6875"/>
     <use xlink:href="#DejaVuSans-76" x="1740.966797"/>
     <use xlink:href="#DejaVuSans-65" x="1800.146484"/>
     <use xlink:href="#DejaVuSans-64" x="1861.669922"/>
     <use xlink:href="#DejaVuSans-20" x="1925.146484"/>
     <use xlink:href="#DejaVuSans-64" x="1956.933594"/>
     <use xlink:href="#DejaVuSans-75" x="2020.410156"/>
     <use xlink:href="#DejaVuSans-72" x="2083.789062"/>
     <use xlink:href="#DejaVuSans-69" x="2124.902344"/>
     <use xlink:href="#DejaVuSans-6e" x="2152.685547"/>
     <use xlink:href="#DejaVuSans-67" x="2216.064453"/>
     <use xlink:href="#DejaVuSans-20" x="2279.541016"/>
     <use xlink:href="#DejaVuSans-6d" x="2311.328125"/>
     <use xlink:href="#DejaVuSans-6f" x="2408.740234"/>
     <use xlink:href="#DejaVuSans-64" x="2469.921875"/>
     <use xlink:href="#DejaVuSans-65" x="2533.398438"/>
     <use xlink:href="#DejaVuSans-6c" x="2594.921875"/>
     <use xlink:href="#DejaVuSans-20" x="2622.705078"/>
     <use xlink:href="#DejaVuSans-74" x="2654.492188"/>
     <use xlink:href="#DejaVuSans-72" x="2693.701172"/>
     <use xlink:href="#DejaVuSans-61" x="2734.814453"/>
     <use xlink:href="#DejaVuSans-69" x="2796.09375"/>
     <use xlink:href="#DejaVuSans-6e" x="2823.876953"/>
     <use xlink:href="#DejaVuSans-69" x="2887.255859"/>
     <use xlink:href="#DejaVuSans-6e" x="2915.039062"/>
     <use xlink:href="#DejaVuSans-67" x="2978.417969"/>
     <use xlink:href="#DejaVuSans-2e" x="3041.894531"/>
    </g>
    <!-- To generate this figure, re-run run_train_fixed_surrogates.py -->
    <g style="fill: #c0392b" transform="translate(80.019531 137.138344) scale(0.1 -0.1)">
     <defs>
      <path id="DejaVuSans-54" d="M -19 4666 
L 3928 4666 
L 3928 4134 
L 2272 4134 
L 2272 0 
L 1638 0 
L 1638 4134 
L -19 4134 
L -19 4666 
z
" transform="scale(0.015625)"/>
      <path id="DejaVuSans-66" d="M 2375 4863 
L 2375 4384 
L 1825 4384 
Q 1516 4384 1395 4259 
Q 1275 4134 1275 3809 
L 1275 3500 
L 2222 3500 
L 2222 3053 
L 1275 3053 
L 1275 0 
L 697 0 
L 697 3053 
L 147 3053 
L 147 3500 
L 697 3500 
L 697 3744 
Q 697 4328 969 4595 
Q 1241 4863 1831 4863 
L 2375 4863 
z
" transform="scale(0.015625)"/>
      <path id="DejaVuSans-2c" d="M 750 794 
L 1409 794 
L 1409 256 
L 897 -744 
L 494 -744 
L 750 256 
L 750 794 
z
" transform="scale(0.015625)"/>
      <path id="DejaVuSans-2d" d="M 313 2009 
L 1997 2009 
L 1997 1497 
L 313 1497 
L 313 2009 
z
" transform="scale(0.015625)"/>
      <path id="DejaVuSans-5f" d="M 3263 -1063 
L 3263 -1509 
L -63 -1509 
L -63 -1063 
L 3263 -1063 
z
" transform="scale(0.015625)"/>
      <path id="DejaVuSans-78" d="M 3513 3500 
L 2247 1797 
L 3578 0 
L 2900 0 
L 1881 1375 
L 863 0 
L 184 0 
L 1544 1831 
L 300 3500 
L 978 3500 
L 1906 2253 
L 2834 3500 
L 3513 3500 
z
" transform="scale(0.015625)"/>
      <path id="DejaVuSans-70" d="M 1159 525 
L 1159 -1331 
L 581 -1331 
L 581 3500 
L 1159 3500 
L 1159 2969 
Q 1341 3281 1617 3432 
Q 1894 3584 2278 3584 
Q 2916 3584 3314 3078 
Q 3713 2572 3713 1747 
Q 3713 922 3314 415 
Q 2916 -91 2278 -91 
Q 1894 -91 1617 61 
Q 1341 213 1159 525 
z
M 3116 1747 
Q 3116 2381 2855 2742 
Q 2594 3103 2138 3103 
Q 1681 3103 1420 2742 
Q 1159 2381 1159 1747 
Q 1159 1113 1420 752 
Q 1681 391 2138 391 
Q 2594 391 2855 752 
Q 3116 1113 3116 1747 
z
" transform="scale(0.015625)"/>
     </defs>
     <use xlink:href="#DejaVuSans-54"/>
     <use xlink:href="#DejaVuSans-6f" x="44.083984"/>
     <use xlink:href="#DejaVuSans-20" x="105.265625"/>
     <use xlink:href="#DejaVuSans-67" x="137.052734"/>
     <use xlink:href="#DejaVuSans-65" x="200.529297"/>
     <use xlink:href="#DejaVuSans-6e" x="262.052734"/>
     <use xlink:href="#DejaVuSans-65" x="325.431641"/>
     <use xlink:href="#DejaVuSans-72" x="386.955078"/>
     <use xlink:href="#DejaVuSans-61" x="428.068359"/>
     <use xlink:href="#DejaVuSans-74" x="489.347656"/>
     <use xlink:href="#DejaVuSans-65" x="528.556641"/>
     <use xlink:href="#DejaVuSans-20" x="590.080078"/>
     <use xlink:href="#DejaVuSans-74" x="621.867188"/>
     <use xlink:href="#DejaVuSans-68" x="661.076172"/>
     <use xlink:href="#DejaVuSans-69" x="724.455078"/>
     <use xlink:href="#DejaVuSans-73" x="752.238281"/>
     <use xlink:href="#DejaVuSans-20" x="804.337891"/>
     <use xlink:href="#DejaVuSans-66" x="836.125"/>
     <use xlink:href="#DejaVuSans-69" x="871.330078"/>
     <use xlink:href="#DejaVuSans-67" x="899.113281"/>
     <use xlink:href="#DejaVuSans-75" x="962.589844"/>
     <use xlink:href="#DejaVuSans-72" x="1025.96875"/>
     <use xlink:href="#DejaVuSans-65" x="1064.832031"/>
     <use xlink:href="#DejaVuSans-2c" x="1126.355469"/>
     <use xlink:href="#DejaVuSans-20" x="1158.142578"/>
     <use xlink:href="#DejaVuSans-72" x="1189.929688"/>
     <use xlink:href="#DejaVuSans-65" x="1228.792969"/>
     <use xlink:href="#DejaVuSans-2d" x="1290.316406"/>
     <use xlink:href="#DejaVuSans-72" x="1326.400391"/>
     <use xlink:href="#DejaVuSans-75" x="1367.513672"/>
     <use xlink:href="#DejaVuSans-6e" x="1430.892578"/>
     <use xlink:href="#DejaVuSans-20" x="1494.271484"/>
     <use xlink:href="#DejaVuSans-72" x="1526.058594"/>
     <use xlink:href="#DejaVuSans-75" x="1567.171875"/>
     <use xlink:href="#DejaVuSans-6e" x="1630.550781"/>
     <use xlink:href="#DejaVuSans-5f" x="1693.929688"/>
     <use xlink:href="#DejaVuSans-74" x="1743.929688"/>
     <use xlink:href="#DejaVuSans-72" x="1783.138672"/>
     <use xlink:href="#DejaVuSans-61" x="1824.251953"/>
     <use xlink:href="#DejaVuSans-69" x="1885.53125"/>
     <use xlink:href="#DejaVuSans-6e" x="1913.314453"/>
     <use xlink:href="#DejaVuSans-5f" x="1976.693359"/>
     <use xlink:href="#DejaVuSans-66" x="2026.693359"/>
     <use xlink:href="#DejaVuSans-69" x="2061.898438"/>
     <use xlink:href="#DejaVuSans-78" x="2089.681641"/>
     <use xlink:href="#DejaVuSans-65" x="2145.736328"/>
     <use xlink:href="#DejaVuSans-64" x="2207.259766"/>
     <use xlink:href="#DejaVuSans-5f" x="2270.736328"/>
     <use xlink:href="#DejaVuSans-73" x="2320.736328"/>
     <use xlink:href="#DejaVuSans-75" x="2372.835938"/>
     <use xlink:href="#DejaVuSans-72" x="2436.214844"/>
     <use xlink:href="#DejaVuSans-72" x="2475.578125"/>
     <use xlink:href="#DejaVuSans-6f" x="2514.441406"/>
     <use xlink:href="#DejaVuSans-67" x="2575.623047"/>
     <use xlink:href="#DejaVuSans-61" x="2639.099609"/>
     <use xlink:href="#DejaVuSans-74" x="2700.378906"/>
     <use xlink:href="#DejaVuSans-65" x="2739.587891"/>
     <use xlink:href="#DejaVuSans-73" x="2801.111328"/>
     <use xlink:href="#DejaVuSans-2e" x="2853.210938"/>
     <use xlink:href="#DejaVuSans-70" x="2884.998047"/>
     <use xlink:href="#DejaVuSans-79" x="2948.474609"/>
    </g>
    <!-- with periodic NLL logging enabled (e.g., save epoch/NLL pairs to CSV). -->
    <g style="fill: #c0392b" transform="translate(54.039062 148.614281) scale(0.1 -0.1)">
     <defs>
      <path id="DejaVuSans-77" d="M 269 3500 
L 844 3500 
L 1563 769 
L 2278 3500 
L 2956 3500 
L 3675 769 
L 4391 3500 
L 4966 3500 
L 4050 0 
L 3372 0 
L 2619 2869 
L 1863 0 
L 1184 0 
L 269 3500 
z
" transform="scale(0.015625)"/>
      <path id="DejaVuSans-63" d="M 3122 3366 
L 3122 2828 
Q 2878 2963 2633 3030 
Q 2388 3097 2138 3097 
Q 1578 3097 1268 2742 
Q 959 2388 959 1747 
Q 959 1106 1268 751 
Q 1578 397 2138 397 
Q 2388 397 2633 464 
Q 2878 531 3122 666 
L 3122 134 
Q 2881 22 2623 -34 
Q 2366 -91 2075 -91 
Q 1284 -91 818 406 
Q 353 903 353 1747 
Q 353 2603 823 3093 
Q 1294 3584 2113 3584 
Q 2378 3584 2631 3529 
Q 2884 3475 3122 3366 
z
" transform="scale(0.015625)"/>
      <path id="DejaVuSans-4e" d="M 628 4666 
L 1478 4666 
L 3547 763 
L 3547 4666 
L 4159 4666 
L 4159 0 
L 3309 0 
L 1241 3903 
L 1241 0 
L 628 0 
L 628 4666 
z
" transform="scale(0.015625)"/>
      <path id="DejaVuSans-4c" d="M 628 4666 
L 1259 4666 
L 1259 531 
L 3531 531 
L 3531 0 
L 628 0 
L 628 4666 
z
" transform="scale(0.015625)"/>
      <path id="DejaVuSans-62" d="M 3116 1747 
Q 3116 2381 2855 2742 
Q 2594 3103 2138 3103 
Q 1681 3103 1420 2742 
Q 1159 2381 1159 1747 
Q 1159 1113 1420 752 
Q 1681 391 2138 391 
Q 2594 391 2855 752 
Q 3116 1113 3116 1747 
z
M 1159 2969 
Q 1341 3281 1617 3432 
Q 1894 3584 2278 3584 
Q 2916 3584 3314 3078 
Q 3713 2572 3713 1747 
Q 3713 922 3314 415 
Q 2916 -91 2278 -91 
Q 1894 -91 1617 61 
Q 1341 213 1159 525 
L 1159 0 
L 581 0 
L 581 4863 
L 1159 4863 
L 1159 2969 
z
" transform="scale(0.015625)"/>
      <path id="DejaVuSans-28" d="M 1984 4856 
Q 1566 4138 1362 3434 
Q 1159 2731 1159 2009 
Q 1159 1288 1364 580 
Q 1569 -128 1984 -844 
L 1484 -844 
Q 1016 -109 783 600 
Q 550 1309 550 2009 
Q 550 2706 781 3412 
Q 1013 4119 1484 4856 
L 1984 4856 
z
" transform="scale(0.015625)"/>
      <path id="DejaVuSans-2f" d="M 1625 4666 
L 2156 4666 
L 531 -594 
L 0 -594 
L 1625 4666 
z
" transform="scale(0.015625)"/>
      <path id="DejaVuSans-29" d="M 513 4856 
L 1013 4856 
Q 1481 4119 1714 3412 
Q 1947 2706 1947 2009 
Q 1947 1309 1714 600 
Q 1481 -109 1013 -844 
L 513 -844 
Q 928 -128 1133 580 
Q 1338 1288 1338 2009 
Q 1338 2731 1133 3434 
Q 928 4138 513 4856 
z
" transform="scale(0.015625)"/>
     </defs>
     <use xlink:href="#DejaVuSans-77"/>
     <use xlink:href="#DejaVuSans-69" x="81.787109"/>
     <use xlink:href="#DejaVuSans-74" x="109.570312"/>
     <use xlink:href="#DejaVuSans-68" x="148.779297"/>
     <use xlink:href="#DejaVuSans-20" x="212.158203"/>
     <use xlink:href="#DejaVuSans-70" x="243.945312"/>
     <use xlink:href="#DejaVuSans-65" x="307.421875"/>
     <use xlink:href="#DejaVuSans-72" x="368.945312"/>
     <use xlink:href="#DejaVuSans-69" x="410.058594"/>
     <use xlink:href="#DejaVuSans-6f" x="437.841797"/>
     <use xlink:href="#DejaVuSans-64" x="499.023438"/>
     <use xlink:href="#DejaVuSans-69" x="562.5"/>
     <use xlink:href="#DejaVuSans-63" x="590.283203"/>
     <use xlink:href="#DejaVuSans-20" x="645.263672"/>
     <use xlink:href="#DejaVuSans-4e" x="677.050781"/>
     <use xlink:href="#DejaVuSans-4c" x="751.855469"/>
     <use xlink:href="#DejaVuSans-4c" x="807.568359"/>
     <use xlink:href="#DejaVuSans-20" x="863.28125"/>
     <use xlink:href="#DejaVuSans-6c" x="895.068359"/>
     <use xlink:href="#DejaVuSans-6f" x="922.851562"/>
     <use xlink:href="#DejaVuSans-67" x="984.033203"/>
     <use xlink:href="#DejaVuSans-67" x="1047.509766"/>
     <use xlink:href="#DejaVuSans-69" x="1110.986328"/>
     <use xlink:href="#DejaVuSans-6e" x="1138.769531"/>
     <use xlink:href="#DejaVuSans-67" x="1202.148438"/>
     <use xlink:href="#DejaVuSans-20" x="1265.625"/>
     <use xlink:href="#DejaVuSans-65" x="1297.412109"/>
     <use xlink:href="#DejaVuSans-6e" x="1358.935547"/>
     <use xlink:href="#DejaVuSans-61" x="1422.314453"/>
     <use xlink:href="#DejaVuSans-62" x="1483.59375"/>
     <use xlink:href="#DejaVuSans-6c" x="1547.070312"/>
     <use xlink:href="#DejaVuSans-65" x="1574.853516"/>
     <use xlink:href="#DejaVuSans-64" x="1636.376953"/>
     <use xlink:href="#DejaVuSans-20" x="1699.853516"/>
     <use xlink:href="#DejaVuSans-28" x="1731.640625"/>
     <use xlink:href="#DejaVuSans-65" x="1770.654297"/>
     <use xlink:href="#DejaVuSans-2e" x="1832.177734"/>
     <use xlink:href="#DejaVuSans-67" x="1863.964844"/>
     <use xlink:href="#DejaVuSans-2e" x="1927.441406"/>
     <use xlink:href="#DejaVuSans-2c" x="1959.228516"/>
     <use xlink:href="#DejaVuSans-20" x="1991.015625"/>
     <use xlink:href="#DejaVuSans-73" x="2022.802734"/>
     <use xlink:href="#DejaVuSans-61" x="2074.902344"/>
     <use xlink:href="#DejaVuSans-76" x="2136.181641"/>
     <use xlink:href="#DejaVuSans-65" x="2195.361328"/>
     <use xlink:href="#DejaVuSans-20" x="2256.884766"/>
     <use xlink:href="#DejaVuSans-65" x="2288.671875"/>
     <use xlink:href="#DejaVuSans-70" x="2350.195312"/>
     <use xlink:href="#DejaVuSans-6f" x="2413.671875"/>
     <use xlink:href="#DejaVuSans-63" x="2474.853516"/>
     <use xlink:href="#DejaVuSans-68" x="2529.833984"/>
     <use xlink:href="#DejaVuSans-2f" x="2593.212891"/>
     <use xlink:href="#DejaVuSans-4e" x="2626.904297"/>
     <use xlink:href="#DejaVuSans-4c" x="2701.708984"/>
     <use xlink:href="#DejaVuSans-4c" x="2757.421875"/>
     <use xlink:href="#DejaVuSans-20" x="2813.134766"/>
     <use xlink:href="#DejaVuSans-70" x="2844.921875"/>
     <use xlink:href="#DejaVuSans-61" x="2908.398438"/>
     <use xlink:href="#DejaVuSans-69" x="2969.677734"/>
     <use xlink:href="#DejaVuSans-72" x="2997.460938"/>
     <use xlink:href="#DejaVuSans-73" x="3038.574219"/>
     <use xlink:href="#DejaVuSans-20" x="3090.673828"/>
     <use xlink:href="#DejaVuSans-74" x="3122.460938"/>
     <use xlink:href="#DejaVuSans-6f" x="3161.669922"/>
     <use xlink:href="#DejaVuSans-20" x="3222.851562"/>
     <use xlink:href="#DejaVuSans-43" x="3254.638672"/>
     <use xlink:href="#DejaVuSans-53" x="3324.462891"/>
     <use xlink:href="#DejaVuSans-56" x="3387.939453"/>
     <use xlink:href="#DejaVuSans-29" x="3456.347656"/>
     <use xlink:href="#DejaVuSans-2e" x="3495.361328"/>
    </g>
    <!-- Required columns: epoch, train_nll, val_nll, level (0 or 2).】 -->
    <g style="fill: #c0392b" transform="translate(84.942969 159.812094) scale(0.1 -0.1)">
     <defs>
      <path id="DejaVuSans-52" d="M 2841 2188 
Q 3044 2119 3236 1894 
Q 3428 1669 3622 1275 
L 4263 0 
L 3584 0 
L 2988 1197 
Q 2756 1666 2539 1819 
Q 2322 1972 1947 1972 
L 1259 1972 
L 1259 0 
L 628 0 
L 628 4666 
L 2053 4666 
Q 2853 4666 3247 4331 
Q 3641 3997 3641 3322 
Q 3641 2881 3436 2590 
Q 3231 2300 2841 2188 
z
M 1259 4147 
L 1259 2491 
L 2053 2491 
Q 2509 2491 2742 2702 
Q 2975 2913 2975 3322 
Q 2975 3731 2742 3939 
Q 2509 4147 2053 4147 
L 1259 4147 
z
" transform="scale(0.015625)"/>
      <path id="DejaVuSans-71" d="M 947 1747 
Q 947 1113 1208 752 
Q 1469 391 1925 391 
Q 2381 391 2643 752 
Q 2906 1113 2906 1747 
Q 2906 2381 2643 2742 
Q 2381 3103 1925 3103 
Q 1469 3103 1208 2742 
Q 947 2381 947 1747 
z
M 2906 525 
Q 2725 213 2448 61 
Q 2172 -91 1784 -91 
Q 1150 -91 751 415 
Q 353 922 353 1747 
Q 353 2572 751 3078 
Q 1150 3584 1784 3584 
Q 2172 3584 2448 3432 
Q 2725 3281 2906 2969 
L 2906 3500 
L 3481 3500 
L 3481 -1331 
L 2906 -1331 
L 2906 525 
z
" transform="scale(0.015625)"/>
      <path id="DejaVuSans-3a" d="M 750 794 
L 1409 794 
L 1409 0 
L 750 0 
L 750 794 
z
M 750 3309 
L 1409 3309 
L 1409 2516 
L 750 2516 
L 750 3309 
z
" transform="scale(0.015625)"/>
      <path id="DejaVuSans-30" d="M 2034 4250 
Q 1547 4250 1301 3770 
Q 1056 3291 1056 2328 
Q 1056 1369 1301 889 
Q 1547 409 2034 409 
Q 2525 409 2770 889 
Q 3016 1369 3016 2328 
Q 3016 3291 2770 3770 
Q 2525 4250 2034 4250 
z
M 2034 4750 
Q 2819 4750 3233 4129 
Q 3647 3509 3647 2328 
Q 3647 1150 3233 529 
Q 2819 -91 2034 -91 
Q 1250 -91 836 529 
Q 422 1150 422 2328 
Q 422 3509 836 4129 
Q 1250 4750 2034 4750 
z
" transform="scale(0.015625)"/>
      <path id="DejaVuSans-32" d="M 1228 531 
L 3431 531 
L 3431 0 
L 469 0 
L 469 531 
Q 828 903 1448 1529 
Q 2069 2156 2228 2338 
Q 2531 2678 2651 2914 
Q 2772 3150 2772 3378 
Q 2772 3750 2511 3984 
Q 2250 4219 1831 4219 
Q 1534 4219 1204 4116 
Q 875 4013 500 3803 
L 500 4441 
Q 881 4594 1212 4672 
Q 1544 4750 1819 4750 
Q 2544 4750 2975 4387 
Q 3406 4025 3406 3419 
Q 3406 3131 3298 2873 
Q 3191 2616 2906 2266 
Q 2828 2175 2409 1742 
Q 1991 1309 1228 531 
z
" transform="scale(0.015625)"/>
      <path id="DejaVuSans-3011" d="M 319 -1131 
L 319 4513 
L 3519 4513 
L 3519 -1131 
L 319 -1131 
z
M 678 -775 
L 3163 -775 
L 3163 4153 
L 678 4153 
L 678 -775 
z
" transform="scale(0.015625)"/>
     </defs>
     <use xlink:href="#DejaVuSans-52"/>
     <use xlink:href="#DejaVuSans-65" x="64.982422"/>
     <use xlink:href="#DejaVuSans-71" x="126.505859"/>
     <use xlink:href="#DejaVuSans-75" x="189.982422"/>
     <use xlink:href="#DejaVuSans-69" x="253.361328"/>
     <use xlink:href="#DejaVuSans-72" x="281.144531"/>
     <use xlink:href="#DejaVuSans-65" x="320.007812"/>
     <use xlink:href="#DejaVuSans-64" x="381.53125"/>
     <use xlink:href="#DejaVuSans-20" x="445.007812"/>
     <use xlink:href="#DejaVuSans-63" x="476.794922"/>
     <use xlink:href="#DejaVuSans-6f" x="531.775391"/>
     <use xlink:href="#DejaVuSans-6c" x="592.957031"/>
     <use xlink:href="#DejaVuSans-75" x="620.740234"/>
     <use xlink:href="#DejaVuSans-6d" x="684.119141"/>
     <use xlink:href="#DejaVuSans-6e" x="781.53125"/>
     <use xlink:href="#DejaVuSans-73" x="844.910156"/>
     <use xlink:href="#DejaVuSans-3a" x="897.009766"/>
     <use xlink:href="#DejaVuSans-20" x="930.701172"/>
     <use xlink:href="#DejaVuSans-65" x="962.488281"/>
     <use xlink:href="#DejaVuSans-70" x="1024.011719"/>
     <use xlink:href="#DejaVuSans-6f" x="1087.488281"/>
     <use xlink:href="#DejaVuSans-63" x="1148.669922"/>
     <use xlink:href="#DejaVuSans-68" x="1203.650391"/>
     <use xlink:href="#DejaVuSans-2c" x="1267.029297"/>
     <use xlink:href="#DejaVuSans-20" x="1298.816406"/>
     <use xlink:href="#DejaVuSans-74" x="1330.603516"/>
     <use xlink:href="#DejaVuSans-72" x="1369.8125"/>
     <use xlink:href="#DejaVuSans-61" x="1410.925781"/>
     <use xlink:href="#DejaVuSans-69" x="1472.205078"/>
     <use xlink:href="#DejaVuSans-6e" x="1499.988281"/>
     <use xlink:href="#DejaVuSans-5f" x="1563.367188"/>
     <use xlink:href="#DejaVuSans-6e" x="1613.367188"/>
     <use xlink:href="#DejaVuSans-6c" x="1676.746094"/>
     <use xlink:href="#DejaVuSans-6c" x="1704.529297"/>
     <use xlink:href="#DejaVuSans-2c" x="1732.3125"/>
     <use xlink:href="#DejaVuSans-20" x="1764.099609"/>
     <use xlink:href="#DejaVuSans-76" x="1795.886719"/>
     <use xlink:href="#DejaVuSans-61" x="1855.066406"/>
     <use xlink:href="#DejaVuSans-6c" x="1916.345703"/>
     <use xlink:href="#DejaVuSans-5f" x="1944.128906"/>
     <use xlink:href="#DejaVuSans-6e" x="1994.128906"/>
     <use xlink:href="#DejaVuSans-6c" x="2057.507812"/>
     <use xlink:href="#DejaVuSans-6c" x="2085.291016"/>
     <use xlink:href="#DejaVuSans-2c" x="2113.074219"/>
     <use xlink:href="#DejaVuSans-20" x="2144.861328"/>
     <use xlink:href="#DejaVuSans-6c" x="2176.648438"/>
     <use xlink:href="#DejaVuSans-65" x="2204.431641"/>
     <use xlink:href="#DejaVuSans-76" x="2265.955078"/>
     <use xlink:href="#DejaVuSans-65" x="2325.134766"/>
     <use xlink:href="#DejaVuSans-6c" x="2386.658203"/>
     <use xlink:href="#DejaVuSans-20" x="2414.441406"/>
     <use xlink:href="#DejaVuSans-28" x="2446.228516"/>
     <use xlink:href="#DejaVuSans-30" x="2485.242188"/>
     <use xlink:href="#DejaVuSans-20" x="2548.865234"/>
     <use xlink:href="#DejaVuSans-6f" x="2580.652344"/>
     <use xlink:href="#DejaVuSans-72" x="2641.833984"/>
     <use xlink:href="#DejaVuSans-20" x="2682.947266"/>
     <use xlink:href="#DejaVuSans-32" x="2714.734375"/>
     <use xlink:href="#DejaVuSans-29" x="2778.357422"/>
     <use xlink:href="#DejaVuSans-2e" x="2817.371094"/>
     <use xlink:href="#DejaVuSans-3011" x="2849.158203"/>
    </g>
   </g>
  </g>
 </g>
</svg>
