<?xml version="1.0" encoding="utf-8" standalone="no"?>
<!DOCTYPE svg PUBLIC "-//W3C//DTD SVG 1.1//EN"
  "http://www.w3.org/Graphics/SVG/1.1/DTD/svg11.dtd">
<svg xmlns:xlink="http://www.w3.org/1999/xlink" width="446.860684pt" height="257.367519pt" viewBox="0 0 446.860684 257.367519" xmlns="http://www.w3.org/2000/svg" version="1.1">
 <metadata>
  <rdf:RDF xmlns:dc="http://purl.org/dc/elements/1.1/" xmlns:cc="http://creativecommons.org/ns#" xmlns:rdf="http://www.w3.org/1999/02/22-rdf-syntax-ns#">
   <cc:Work>
    <dc:type rdf:resource="http://purl.org/dc/dcmitype/StillImage"/>
    <dc:date>2026-04-19T10:02:11.427075</dc:date>
    <dc:format>image/svg+xml</dc:format>
    <dc:creator>
     <cc:Agent>
      <dc:title>Matplotlib v3.8.4, https://matplotlib.org/</dc:title>
     </cc:Agent>
    </dc:creator>
   </cc:Work>
  </rdf:RDF>
 </metadata>
 <defs>
  <style type="text/css">*{stroke-linejoin: round; stroke-linecap: butt}</style>
 </defs>
 <g id="figure_1">
  <g id="patch_1">
   <path d="M 0 257.367519 
L 446.860684 257.367519 
L 446.860684 0 
L 0 0 
z
" style="fill: #ffffff"/>
  </g>
  <g id="axes_1">
   <g id="patch_2">
    <path d="M 41.51 213.097519 
L 199.982 213.097519 
L 199.982 19.057519 
L 41.51 19.057519 
z
" style="fill: #ffffff"/>
   </g>
   <g id="line2d_1">
    <path d="M 51.009566 213.097519 
L 51.009566 19.057519 
" clip-path="url(#p2f4558893e)" style="fill: none; stroke: #aaaaaa; stroke-width: 0.5; stroke-linecap: square"/>
   </g>
   <g id="matplotlib.axis_1">
    <g id="xtick_1">
     <g id="line2d_2">
      <defs>
       <path id="m6379c7bae3" d="M 0 0 
L 0 4 
" style="stroke: #000000; stroke-width: 0.8"/>
      </defs>
      <g>
       <use xlink:href="#m6379c7bae3" x="51.009566" y="213.097519" style="stroke: #000000; stroke-width: 0.8"/>
      </g>
     </g>
     <g id="text_1">
      <text style="font: 7px 'Arial', 'Helvetica', 'DejaVu Sans', sans-serif; text-anchor: middle" x="51.009566" y="225.607987" transform="rotate(-0 51.009566 225.607987)">0.0</text>
     </g>
    </g>
    <g id="xtick_2">
     <g id="line2d_3">
      <g>
       <use xlink:href="#m6379c7bae3" x="75.857751" y="213.097519" style="stroke: #000000; stroke-width: 0.8"/>
      </g>
     </g>
     <g id="text_2">
      <text style="font: 7px 'Arial', 'Helvetica', 'DejaVu Sans', sans-serif; text-anchor: middle" x="75.857751" y="225.607987" transform="rotate(-0 75.857751 225.607987)">0.1</text>
     </g>
    </g>
    <g id="xtick_3">
     <g id="line2d_4">
      <g>
       <use xlink:href="#m6379c7bae3" x="100.705936" y="213.097519" style="stroke: #000000; stroke-width: 0.8"/>
      </g>
     </g>
     <g id="text_3">
      <text style="font: 7px 'Arial', 'Helvetica', 'DejaVu Sans', sans-serif; text-anchor: middle" x="100.705936" y="225.607987" transform="rotate(-0 100.705936 225.607987)">0.2</text>
     </g>
    </g>
    <g id="xtick_4">
     <g id="line2d_5">
      <g>
       <use xlink:href="#m6379c7bae3" x="125.55412" y="213.097519" style="stroke: #000000; stroke-width: 0.8"/>
      </g>
     </g>
     <g id="text_4">
      <text style="font: 7px 'Arial', 'Helvetica', 'DejaVu Sans', sans-serif; text-anchor: middle" x="125.55412" y="225.607987" transform="rotate(-0 125.55412 225.607987)">0.3</text>
     </g>
    </g>
    <g id="xtick_5">
     <g id="line2d_6">
      <g>
       <use xlink:href="#m6379c7bae3" x="150.402305" y="213.097519" style="stroke: #000000; stroke-width: 0.8"/>
      </g>
     </g>
     <g id="text_5">
      <text style="font: 7px 'Arial', 'Helvetica', 'DejaVu Sans', sans-serif; text-anchor: middle" x="150.402305" y="225.607987" transform="rotate(-0 150.402305 225.607987)">0.4</text>
     </g>
    </g>
    <g id="xtick_6">
     <g id="line2d_7">
      <g>
       <use xlink:href="#m6379c7bae3" x="175.25049" y="213.097519" style="stroke: #000000; stroke-width: 0.8"/>
      </g>
     </g>
     <g id="text_6">
      <text style="font: 7px 'Arial', 'Helvetica', 'DejaVu Sans', sans-serif; text-anchor: middle" x="175.25049" y="225.607987" transform="rotate(-0 175.25049 225.607987)">0.5</text>
     </g>
    </g>
    <g id="text_7">
     <text style="font: 7.5px 'Arial', 'Helvetica', 'DejaVu Sans', sans-serif; text-anchor: middle" x="120.746" y="236.367597" transform="rotate(-0 120.746 236.367597)">Sobol index</text>
    </g>
   </g>
   <g id="matplotlib.axis_2">
    <g id="ytick_1">
     <g id="line2d_8">
      <defs>
       <path id="m15e4efc003" d="M 0 0 
L -4 0 
" style="stroke: #000000; stroke-width: 0.8"/>
      </defs>
      <g>
       <use xlink:href="#m15e4efc003" x="41.51" y="35.895701" style="stroke: #000000; stroke-width: 0.8"/>
      </g>
     </g>
     <g id="text_8">
      <!-- $E_\mathrm{intercept}$ -->
      <g transform="translate(7.2 38.450701)">
       <text>
        <tspan style="font: oblique 7px 'DejaVu Sans'" x="0" y="-0.890625">E</tspan>
        <tspan style="font: 4.9px 'DejaVu Sans'" x="4.422852 5.784229 8.889795 10.811035 13.825684 15.840234 18.534277 21.548926 24.659277" y="0.2578125">intercept</tspan>
       </text>
      </g>
     </g>
    </g>
    <g id="ytick_2">
     <g id="line2d_9">
      <g>
       <use xlink:href="#m15e4efc003" x="41.51" y="58.804791" style="stroke: #000000; stroke-width: 0.8"/>
      </g>
     </g>
     <g id="text_9">
      <!-- $\alpha_\mathrm{base}$ -->
      <g transform="translate(17.49 61.310026)">
       <text>
        <tspan style="font: oblique 7px 'DejaVu Sans'" x="0" y="-0.0625">α</tspan>
        <tspan style="font: 4.9px 'DejaVu Sans'" x="4.614258 7.724609 10.727295 13.280176" y="1.0859375">base</tspan>
       </text>
      </g>
     </g>
    </g>
    <g id="ytick_3">
     <g id="line2d_10">
      <g>
       <use xlink:href="#m15e4efc003" x="41.51" y="81.713882" style="stroke: #000000; stroke-width: 0.8"/>
      </g>
     </g>
     <g id="text_10">
      <!-- $k_\mathrm{ref}$ -->
      <g transform="translate(22.95 84.308257)">
       <text>
        <tspan style="font: oblique 7px 'DejaVu Sans'" x="0" y="-0.6875">k</tspan>
        <tspan style="font: 4.9px 'DejaVu Sans'" x="4.053711 6.068262 9.08291" y="0.4609375">ref</tspan>
       </text>
      </g>
     </g>
    </g>
    <g id="ytick_4">
     <g id="line2d_11">
      <g>
       <use xlink:href="#m15e4efc003" x="41.51" y="104.622973" style="stroke: #000000; stroke-width: 0.8"/>
      </g>
     </g>
     <g id="text_11">
      <!-- $\nu$ -->
      <g transform="translate(30.09 107.128208)">
       <text>
        <tspan style="font: oblique 7px 'DejaVu Sans'" x="0" y="-0.171875">ν</tspan>
       </text>
      </g>
     </g>
    </g>
    <g id="ytick_5">
     <g id="line2d_12">
      <g>
       <use xlink:href="#m15e4efc003" x="41.51" y="127.532064" style="stroke: #000000; stroke-width: 0.8"/>
      </g>
     </g>
     <g id="text_12">
      <!-- $E_\mathrm{slope}$ -->
      <g transform="translate(16.3 130.087064)">
       <text>
        <tspan style="font: oblique 7px 'DejaVu Sans'" x="0" y="-0.890625">E</tspan>
        <tspan style="font: 4.9px 'DejaVu Sans'" x="4.422852 6.975732 8.337109 11.33501 14.445361" y="0.2578125">slope</tspan>
       </text>
      </g>
     </g>
    </g>
    <g id="ytick_6">
     <g id="line2d_13">
      <g>
       <use xlink:href="#m15e4efc003" x="41.51" y="150.441155" style="stroke: #000000; stroke-width: 0.8"/>
      </g>
     </g>
     <g id="text_13">
      <!-- $\alpha_\mathrm{slope}$ -->
      <g transform="translate(16.16 152.557014)">
       <text>
        <tspan style="font: oblique 7px 'DejaVu Sans'" x="0" y="-0.0625">α</tspan>
        <tspan style="font: 4.9px 'DejaVu Sans'" x="4.614258 7.167139 8.528516 11.526416 14.636768" y="1.0859375">slope</tspan>
       </text>
      </g>
     </g>
    </g>
    <g id="ytick_7">
     <g id="line2d_14">
      <g>
       <use xlink:href="#m15e4efc003" x="41.51" y="173.350246" style="stroke: #000000; stroke-width: 0.8"/>
      </g>
     </g>
     <g id="text_14">
      <!-- $T_\mathrm{ref}$ -->
      <g transform="translate(22.74 175.85548)">
       <text>
        <tspan style="font: oblique 7px 'DejaVu Sans'" x="0" y="-0.890625">T</tspan>
        <tspan style="font: 4.9px 'DejaVu Sans'" x="4.275879 6.29043 9.305078" y="0.2578125">ref</tspan>
       </text>
      </g>
     </g>
    </g>
    <g id="ytick_8">
     <g id="line2d_15">
      <g>
       <use xlink:href="#m15e4efc003" x="41.51" y="196.259337" style="stroke: #000000; stroke-width: 0.8"/>
      </g>
     </g>
     <g id="text_15">
      <!-- $\alpha_\mathrm{SS316}$ -->
      <g transform="translate(13.57 198.764571)">
       <text>
        <tspan style="font: oblique 7px 'DejaVu Sans'" x="0" y="-0.0625">α</tspan>
        <tspan style="font: 4.9px 'DejaVu Sans'" x="4.614258 7.724609 10.834961 13.95249 17.07002" y="1.0859375">SS316</tspan>
       </text>
      </g>
     </g>
    </g>
   </g>
   <g id="patch_3">
    <path d="M 51.009566 35.895701 
L 186.452802 35.895701 
L 186.452802 43.913882 
L 51.009566 43.913882 
z
" clip-path="url(#p2f4558893e)" style="fill: #3a7d7b; opacity: 0.75"/>
   </g>
   <g id="patch_4">
    <path d="M 51.009566 58.804791 
L 99.752959 58.804791 
L 99.752959 66.822973 
L 51.009566 66.822973 
z
" clip-path="url(#p2f4558893e)" style="fill: #d4853a; opacity: 0.75"/>
   </g>
   <g id="patch_5">
    <path d="M 51.009566 81.713882 
L 66.384772 81.713882 
L 66.384772 89.732064 
L 51.009566 89.732064 
z
" clip-path="url(#p2f4558893e)" style="fill: #7b6ba5; opacity: 0.75"/>
   </g>
   <g id="patch_6">
    <path d="M 51.009566 104.622973 
L 65.834994 104.622973 
L 65.834994 112.641155 
L 51.009566 112.641155 
z
" clip-path="url(#p2f4558893e)" style="fill: #3a7d7b; opacity: 0.75"/>
   </g>
   <g id="patch_7">
    <path d="M 51.009566 127.532064 
L 60.741331 127.532064 
L 60.741331 135.550246 
L 51.009566 135.550246 
z
" clip-path="url(#p2f4558893e)" style="fill: #3a7d7b; opacity: 0.75"/>
   </g>
   <g id="patch_8">
    <path d="M 51.009566 150.441155 
L 60.539623 150.441155 
L 60.539623 158.459337 
L 51.009566 158.459337 
z
" clip-path="url(#p2f4558893e)" style="fill: #d4853a; opacity: 0.75"/>
   </g>
   <g id="patch_9">
    <path d="M 51.009566 173.350246 
L 55.675395 173.350246 
L 55.675395 181.368428 
L 51.009566 181.368428 
z
" clip-path="url(#p2f4558893e)" style="fill: #7b6ba5; opacity: 0.75"/>
   </g>
   <g id="patch_10">
    <path d="M 51.009566 196.259337 
L 50.562284 196.259337 
L 50.562284 204.277519 
L 51.009566 204.277519 
z
" clip-path="url(#p2f4558893e)" style="fill: #b0b0b0; opacity: 0.75"/>
   </g>
   <g id="patch_11">
    <path d="M 51.009566 27.877519 
L 191.686029 27.877519 
L 191.686029 35.895701 
L 51.009566 35.895701 
z
" clip-path="url(#p2f4558893e)" style="fill: url(#had5d3e1578); opacity: 0.45; stroke: #555555; stroke-width: 0.3; stroke-linejoin: miter"/>
   </g>
   <g id="patch_12">
    <path d="M 51.009566 50.78661 
L 104.301903 50.78661 
L 104.301903 58.804791 
L 51.009566 58.804791 
z
" clip-path="url(#p2f4558893e)" style="fill: url(#h149c79b57b); opacity: 0.45; stroke: #555555; stroke-width: 0.3; stroke-linejoin: miter"/>
   </g>
   <g id="patch_13">
    <path d="M 51.009566 73.695701 
L 69.260404 73.695701 
L 69.260404 81.713882 
L 51.009566 81.713882 
z
" clip-path="url(#p2f4558893e)" style="fill: url(#he05ef28f12); opacity: 0.45; stroke: #555555; stroke-width: 0.3; stroke-linejoin: miter"/>
   </g>
   <g id="patch_14">
    <path d="M 51.009566 96.604791 
L 67.816877 96.604791 
L 67.816877 104.622973 
L 51.009566 104.622973 
z
" clip-path="url(#p2f4558893e)" style="fill: url(#had5d3e1578); opacity: 0.45; stroke: #555555; stroke-width: 0.3; stroke-linejoin: miter"/>
   </g>
   <g id="patch_15">
    <path d="M 51.009566 119.513882 
L 60.630492 119.513882 
L 60.630492 127.532064 
L 51.009566 127.532064 
z
" clip-path="url(#p2f4558893e)" style="fill: url(#had5d3e1578); opacity: 0.45; stroke: #555555; stroke-width: 0.3; stroke-linejoin: miter"/>
   </g>
   <g id="patch_16">
    <path d="M 51.009566 142.422973 
L 62.811301 142.422973 
L 62.811301 150.441155 
L 51.009566 150.441155 
z
" clip-path="url(#p2f4558893e)" style="fill: url(#h149c79b57b); opacity: 0.45; stroke: #555555; stroke-width: 0.3; stroke-linejoin: miter"/>
   </g>
   <g id="patch_17">
    <path d="M 51.009566 165.332064 
L 58.978786 165.332064 
L 58.978786 173.350246 
L 51.009566 173.350246 
z
" clip-path="url(#p2f4558893e)" style="fill: url(#he05ef28f12); opacity: 0.45; stroke: #555555; stroke-width: 0.3; stroke-linejoin: miter"/>
   </g>
   <g id="patch_18">
    <path d="M 51.009566 188.241155 
L 52.323573 188.241155 
L 52.323573 196.259337 
L 51.009566 196.259337 
z
" clip-path="url(#p2f4558893e)" style="fill: url(#he05ef28f12); opacity: 0.45; stroke: #555555; stroke-width: 0.3; stroke-linejoin: miter"/>
   </g>
   <g id="patch_19">
    <path d="M 41.51 213.097519 
L 41.51 19.057519 
" style="fill: none; stroke: #4a4a4a; stroke-width: 0.8; stroke-linejoin: miter; stroke-linecap: square"/>
   </g>
   <g id="patch_20">
    <path d="M 41.51 213.097519 
L 199.982 213.097519 
" style="fill: none; stroke: #4a4a4a; stroke-width: 0.8; stroke-linejoin: miter; stroke-linecap: square"/>
   </g>
   <g id="LineCollection_1">
    <path d="M 185.386526 39.904791 
L 187.519079 39.904791 
" clip-path="url(#p2f4558893e)" style="fill: none; stroke: #555555; stroke-width: 0.5"/>
    <path d="M 98.308445 62.813882 
L 101.197472 62.813882 
" clip-path="url(#p2f4558893e)" style="fill: none; stroke: #555555; stroke-width: 0.5"/>
    <path d="M 64.880168 85.722973 
L 67.889376 85.722973 
" clip-path="url(#p2f4558893e)" style="fill: none; stroke: #555555; stroke-width: 0.5"/>
    <path d="M 64.148353 108.632064 
L 67.521634 108.632064 
" clip-path="url(#p2f4558893e)" style="fill: none; stroke: #555555; stroke-width: 0.5"/>
    <path d="M 58.968323 131.541155 
L 62.51434 131.541155 
" clip-path="url(#p2f4558893e)" style="fill: none; stroke: #555555; stroke-width: 0.5"/>
    <path d="M 59.057041 154.450246 
L 62.022205 154.450246 
" clip-path="url(#p2f4558893e)" style="fill: none; stroke: #555555; stroke-width: 0.5"/>
    <path d="M 53.919527 177.359337 
L 57.431262 177.359337 
" clip-path="url(#p2f4558893e)" style="fill: none; stroke: #555555; stroke-width: 0.5"/>
    <path d="M 48.713273 200.268428 
L 52.411296 200.268428 
" clip-path="url(#p2f4558893e)" style="fill: none; stroke: #555555; stroke-width: 0.5"/>
   </g>
   <g id="line2d_16">
    <defs>
     <path id="m7fabf2bde7" d="M 0 1.5 
L 0 -1.5 
" style="stroke: #555555; stroke-width: 0.5"/>
    </defs>
    <g clip-path="url(#p2f4558893e)">
     <use xlink:href="#m7fabf2bde7" x="185.386526" y="39.904791" style="fill: #555555; stroke: #555555; stroke-width: 0.5"/>
     <use xlink:href="#m7fabf2bde7" x="98.308445" y="62.813882" style="fill: #555555; stroke: #555555; stroke-width: 0.5"/>
     <use xlink:href="#m7fabf2bde7" x="64.880168" y="85.722973" style="fill: #555555; stroke: #555555; stroke-width: 0.5"/>
     <use xlink:href="#m7fabf2bde7" x="64.148353" y="108.632064" style="fill: #555555; stroke: #555555; stroke-width: 0.5"/>
     <use xlink:href="#m7fabf2bde7" x="58.968323" y="131.541155" style="fill: #555555; stroke: #555555; stroke-width: 0.5"/>
     <use xlink:href="#m7fabf2bde7" x="59.057041" y="154.450246" style="fill: #555555; stroke: #555555; stroke-width: 0.5"/>
     <use xlink:href="#m7fabf2bde7" x="53.919527" y="177.359337" style="fill: #555555; stroke: #555555; stroke-width: 0.5"/>
     <use xlink:href="#m7fabf2bde7" x="48.713273" y="200.268428" style="fill: #555555; stroke: #555555; stroke-width: 0.5"/>
    </g>
   </g>
   <g id="line2d_17">
    <g clip-path="url(#p2f4558893e)">
     <use xlink:href="#m7fabf2bde7" x="187.519079" y="39.904791" style="fill: #555555; stroke: #555555; stroke-width: 0.5"/>
     <use xlink:href="#m7fabf2bde7" x="101.197472" y="62.813882" style="fill: #555555; stroke: #555555; stroke-width: 0.5"/>
     <use xlink:href="#m7fabf2bde7" x="67.889376" y="85.722973" style="fill: #555555; stroke: #555555; stroke-width: 0.5"/>
     <use xlink:href="#m7fabf2bde7" x="67.521634" y="108.632064" style="fill: #555555; stroke: #555555; stroke-width: 0.5"/>
     <use xlink:href="#m7fabf2bde7" x="62.51434" y="131.541155" style="fill: #555555; stroke: #555555; stroke-width: 0.5"/>
     <use xlink:href="#m7fabf2bde7" x="62.022205" y="154.450246" style="fill: #555555; stroke: #555555; stroke-width: 0.5"/>
     <use xlink:href="#m7fabf2bde7" x="57.431262" y="177.359337" style="fill: #555555; stroke: #555555; stroke-width: 0.5"/>
     <use xlink:href="#m7fabf2bde7" x="52.411296" y="200.268428" style="fill: #555555; stroke: #555555; stroke-width: 0.5"/>
    </g>
   </g>
   <g id="LineCollection_2">
    <path d="M 190.59333 31.88661 
L 192.778727 31.88661 
" clip-path="url(#p2f4558893e)" style="fill: none; stroke: #555555; stroke-width: 0.5"/>
    <path d="M 103.697919 54.795701 
L 104.905887 54.795701 
" clip-path="url(#p2f4558893e)" style="fill: none; stroke: #555555; stroke-width: 0.5"/>
    <path d="M 68.950575 77.704791 
L 69.570232 77.704791 
" clip-path="url(#p2f4558893e)" style="fill: none; stroke: #555555; stroke-width: 0.5"/>
    <path d="M 67.54369 100.613882 
L 68.090063 100.613882 
" clip-path="url(#p2f4558893e)" style="fill: none; stroke: #555555; stroke-width: 0.5"/>
    <path d="M 60.475561 123.522973 
L 60.785424 123.522973 
" clip-path="url(#p2f4558893e)" style="fill: none; stroke: #555555; stroke-width: 0.5"/>
    <path d="M 62.55324 146.432064 
L 63.069363 146.432064 
" clip-path="url(#p2f4558893e)" style="fill: none; stroke: #555555; stroke-width: 0.5"/>
    <path d="M 58.807297 169.341155 
L 59.150276 169.341155 
" clip-path="url(#p2f4558893e)" style="fill: none; stroke: #555555; stroke-width: 0.5"/>
    <path d="M 52.259203 192.250246 
L 52.387942 192.250246 
" clip-path="url(#p2f4558893e)" style="fill: none; stroke: #555555; stroke-width: 0.5"/>
   </g>
   <g id="line2d_18">
    <g clip-path="url(#p2f4558893e)">
     <use xlink:href="#m7fabf2bde7" x="190.59333" y="31.88661" style="fill: #555555; stroke: #555555; stroke-width: 0.5"/>
     <use xlink:href="#m7fabf2bde7" x="103.697919" y="54.795701" style="fill: #555555; stroke: #555555; stroke-width: 0.5"/>
     <use xlink:href="#m7fabf2bde7" x="68.950575" y="77.704791" style="fill: #555555; stroke: #555555; stroke-width: 0.5"/>
     <use xlink:href="#m7fabf2bde7" x="67.54369" y="100.613882" style="fill: #555555; stroke: #555555; stroke-width: 0.5"/>
     <use xlink:href="#m7fabf2bde7" x="60.475561" y="123.522973" style="fill: #555555; stroke: #555555; stroke-width: 0.5"/>
     <use xlink:href="#m7fabf2bde7" x="62.55324" y="146.432064" style="fill: #555555; stroke: #555555; stroke-width: 0.5"/>
     <use xlink:href="#m7fabf2bde7" x="58.807297" y="169.341155" style="fill: #555555; stroke: #555555; stroke-width: 0.5"/>
     <use xlink:href="#m7fabf2bde7" x="52.259203" y="192.250246" style="fill: #555555; stroke: #555555; stroke-width: 0.5"/>
    </g>
   </g>
   <g id="line2d_19">
    <g clip-path="url(#p2f4558893e)">
     <use xlink:href="#m7fabf2bde7" x="192.778727" y="31.88661" style="fill: #555555; stroke: #555555; stroke-width: 0.5"/>
     <use xlink:href="#m7fabf2bde7" x="104.905887" y="54.795701" style="fill: #555555; stroke: #555555; stroke-width: 0.5"/>
     <use xlink:href="#m7fabf2bde7" x="69.570232" y="77.704791" style="fill: #555555; stroke: #555555; stroke-width: 0.5"/>
     <use xlink:href="#m7fabf2bde7" x="68.090063" y="100.613882" style="fill: #555555; stroke: #555555; stroke-width: 0.5"/>
     <use xlink:href="#m7fabf2bde7" x="60.785424" y="123.522973" style="fill: #555555; stroke: #555555; stroke-width: 0.5"/>
     <use xlink:href="#m7fabf2bde7" x="63.069363" y="146.432064" style="fill: #555555; stroke: #555555; stroke-width: 0.5"/>
     <use xlink:href="#m7fabf2bde7" x="59.150276" y="169.341155" style="fill: #555555; stroke: #555555; stroke-width: 0.5"/>
     <use xlink:href="#m7fabf2bde7" x="52.387942" y="192.250246" style="fill: #555555; stroke: #555555; stroke-width: 0.5"/>
    </g>
   </g>
   <g id="text_16">
    <text style="fill: #3a3a3a; font: 500 8.5px 'Arial', 'Helvetica', 'DejaVu Sans', sans-serif; text-anchor: start" x="22.49336" y="13.387734" transform="rotate(-0 22.49336 13.387734)">(A)</text>
   </g>
   <g id="text_17">
    <text style="font: 8px 'Arial', 'Helvetica', 'DejaVu Sans', sans-serif; text-anchor: middle" x="120.746" y="15.057519" transform="rotate(-0 120.746 15.057519)">Coupled steady-state max stress</text>
   </g>
  </g>
  <g id="axes_2">
   <g id="patch_21">
    <path d="M 279.218 213.097519 
L 437.69 213.097519 
L 437.69 19.057519 
L 279.218 19.057519 
z
" style="fill: #ffffff"/>
   </g>
   <g id="line2d_20">
    <path d="M 289.268592 213.097519 
L 289.268592 19.057519 
" clip-path="url(#pf155657168)" style="fill: none; stroke: #aaaaaa; stroke-width: 0.5; stroke-linecap: square"/>
   </g>
   <g id="matplotlib.axis_3">
    <g id="xtick_7">
     <g id="line2d_21">
      <g>
       <use xlink:href="#m6379c7bae3" x="289.268592" y="213.097519" style="stroke: #000000; stroke-width: 0.8"/>
      </g>
     </g>
     <g id="text_18">
      <text style="font: 7px 'Arial', 'Helvetica', 'DejaVu Sans', sans-serif; text-anchor: middle" x="289.268592" y="225.607987" transform="rotate(-0 289.268592 225.607987)">0.0</text>
     </g>
    </g>
    <g id="xtick_8">
     <g id="line2d_22">
      <g>
       <use xlink:href="#m6379c7bae3" x="325.650365" y="213.097519" style="stroke: #000000; stroke-width: 0.8"/>
      </g>
     </g>
     <g id="text_19">
      <text style="font: 7px 'Arial', 'Helvetica', 'DejaVu Sans', sans-serif; text-anchor: middle" x="325.650365" y="225.607987" transform="rotate(-0 325.650365 225.607987)">0.2</text>
     </g>
    </g>
    <g id="xtick_9">
     <g id="line2d_23">
      <g>
       <use xlink:href="#m6379c7bae3" x="362.032138" y="213.097519" style="stroke: #000000; stroke-width: 0.8"/>
      </g>
     </g>
     <g id="text_20">
      <text style="font: 7px 'Arial', 'Helvetica', 'DejaVu Sans', sans-serif; text-anchor: middle" x="362.032138" y="225.607987" transform="rotate(-0 362.032138 225.607987)">0.4</text>
     </g>
    </g>
    <g id="xtick_10">
     <g id="line2d_24">
      <g>
       <use xlink:href="#m6379c7bae3" x="398.413911" y="213.097519" style="stroke: #000000; stroke-width: 0.8"/>
      </g>
     </g>
     <g id="text_21">
      <text style="font: 7px 'Arial', 'Helvetica', 'DejaVu Sans', sans-serif; text-anchor: middle" x="398.413911" y="225.607987" transform="rotate(-0 398.413911 225.607987)">0.6</text>
     </g>
    </g>
    <g id="xtick_11">
     <g id="line2d_25">
      <g>
       <use xlink:href="#m6379c7bae3" x="434.795684" y="213.097519" style="stroke: #000000; stroke-width: 0.8"/>
      </g>
     </g>
     <g id="text_22">
      <text style="font: 7px 'Arial', 'Helvetica', 'DejaVu Sans', sans-serif; text-anchor: middle" x="434.795684" y="225.607987" transform="rotate(-0 434.795684 225.607987)">0.8</text>
     </g>
    </g>
    <g id="text_23">
     <text style="font: 7.5px 'Arial', 'Helvetica', 'DejaVu Sans', sans-serif; text-anchor: middle" x="358.454" y="236.367597" transform="rotate(-0 358.454 236.367597)">Sobol index</text>
    </g>
   </g>
   <g id="matplotlib.axis_4">
    <g id="ytick_9">
     <g id="line2d_26">
      <g>
       <use xlink:href="#m15e4efc003" x="279.218" y="35.895701" style="stroke: #000000; stroke-width: 0.8"/>
      </g>
     </g>
     <g id="text_24">
      <!-- $\alpha_\mathrm{base}$ -->
      <g transform="translate(255.198 38.400935)">
       <text>
        <tspan style="font: oblique 7px 'DejaVu Sans'" x="0" y="-0.0625">α</tspan>
        <tspan style="font: 4.9px 'DejaVu Sans'" x="4.614258 7.724609 10.727295 13.280176" y="1.0859375">base</tspan>
       </text>
      </g>
     </g>
    </g>
    <g id="ytick_10">
     <g id="line2d_27">
      <g>
       <use xlink:href="#m15e4efc003" x="279.218" y="58.804791" style="stroke: #000000; stroke-width: 0.8"/>
      </g>
     </g>
     <g id="text_25">
      <!-- $\alpha_\mathrm{slope}$ -->
      <g transform="translate(253.868 60.920651)">
       <text>
        <tspan style="font: oblique 7px 'DejaVu Sans'" x="0" y="-0.0625">α</tspan>
        <tspan style="font: 4.9px 'DejaVu Sans'" x="4.614258 7.167139 8.528516 11.526416 14.636768" y="1.0859375">slope</tspan>
       </text>
      </g>
     </g>
    </g>
    <g id="ytick_11">
     <g id="line2d_28">
      <g>
       <use xlink:href="#m15e4efc003" x="279.218" y="81.713882" style="stroke: #000000; stroke-width: 0.8"/>
      </g>
     </g>
     <g id="text_26">
      <!-- $\nu$ -->
      <g transform="translate(267.798 84.219117)">
       <text>
        <tspan style="font: oblique 7px 'DejaVu Sans'" x="0" y="-0.171875">ν</tspan>
       </text>
      </g>
     </g>
    </g>
    <g id="ytick_12">
     <g id="line2d_29">
      <g>
       <use xlink:href="#m15e4efc003" x="279.218" y="104.622973" style="stroke: #000000; stroke-width: 0.8"/>
      </g>
     </g>
     <g id="text_27">
      <!-- $T_\mathrm{ref}$ -->
      <g transform="translate(260.448 107.128208)">
       <text>
        <tspan style="font: oblique 7px 'DejaVu Sans'" x="0" y="-0.890625">T</tspan>
        <tspan style="font: 4.9px 'DejaVu Sans'" x="4.275879 6.29043 9.305078" y="0.2578125">ref</tspan>
       </text>
      </g>
     </g>
    </g>
    <g id="ytick_13">
     <g id="line2d_30">
      <g>
       <use xlink:href="#m15e4efc003" x="279.218" y="127.532064" style="stroke: #000000; stroke-width: 0.8"/>
      </g>
     </g>
     <g id="text_28">
      <!-- $E_\mathrm{intercept}$ -->
      <g transform="translate(244.908 130.087064)">
       <text>
        <tspan style="font: oblique 7px 'DejaVu Sans'" x="0" y="-0.890625">E</tspan>
        <tspan style="font: 4.9px 'DejaVu Sans'" x="4.422852 5.784229 8.889795 10.811035 13.825684 15.840234 18.534277 21.548926 24.659277" y="0.2578125">intercept</tspan>
       </text>
      </g>
     </g>
    </g>
    <g id="ytick_14">
     <g id="line2d_31">
      <g>
       <use xlink:href="#m15e4efc003" x="279.218" y="150.441155" style="stroke: #000000; stroke-width: 0.8"/>
      </g>
     </g>
     <g id="text_29">
      <!-- $E_\mathrm{slope}$ -->
      <g transform="translate(254.008 152.996155)">
       <text>
        <tspan style="font: oblique 7px 'DejaVu Sans'" x="0" y="-0.890625">E</tspan>
        <tspan style="font: 4.9px 'DejaVu Sans'" x="4.422852 6.975732 8.337109 11.33501 14.445361" y="0.2578125">slope</tspan>
       </text>
      </g>
     </g>
    </g>
    <g id="ytick_15">
     <g id="line2d_32">
      <g>
       <use xlink:href="#m15e4efc003" x="279.218" y="173.350246" style="stroke: #000000; stroke-width: 0.8"/>
      </g>
     </g>
     <g id="text_30">
      <!-- $\alpha_\mathrm{SS316}$ -->
      <g transform="translate(251.278 175.85548)">
       <text>
        <tspan style="font: oblique 7px 'DejaVu Sans'" x="0" y="-0.0625">α</tspan>
        <tspan style="font: 4.9px 'DejaVu Sans'" x="4.614258 7.724609 10.834961 13.95249 17.07002" y="1.0859375">SS316</tspan>
       </text>
      </g>
     </g>
    </g>
    <g id="ytick_16">
     <g id="line2d_33">
      <g>
       <use xlink:href="#m15e4efc003" x="279.218" y="196.259337" style="stroke: #000000; stroke-width: 0.8"/>
      </g>
     </g>
     <g id="text_31">
      <!-- $k_\mathrm{ref}$ -->
      <g transform="translate(260.658 198.853712)">
       <text>
        <tspan style="font: oblique 7px 'DejaVu Sans'" x="0" y="-0.6875">k</tspan>
        <tspan style="font: 4.9px 'DejaVu Sans'" x="4.053711 6.068262 9.08291" y="0.4609375">ref</tspan>
       </text>
      </g>
     </g>
    </g>
   </g>
   <g id="patch_22">
    <path d="M 289.268592 35.895701 
L 429.063484 35.895701 
L 429.063484 43.913882 
L 289.268592 43.913882 
z
" clip-path="url(#pf155657168)" style="fill: #d4853a; opacity: 0.75"/>
   </g>
   <g id="patch_23">
    <path d="M 289.268592 58.804791 
L 323.174315 58.804791 
L 323.174315 66.822973 
L 289.268592 66.822973 
z
" clip-path="url(#pf155657168)" style="fill: #d4853a; opacity: 0.75"/>
   </g>
   <g id="patch_24">
    <path d="M 289.268592 81.713882 
L 291.908231 81.713882 
L 291.908231 89.732064 
L 289.268592 89.732064 
z
" clip-path="url(#pf155657168)" style="fill: #3a7d7b; opacity: 0.75"/>
   </g>
   <g id="patch_25">
    <path d="M 289.268592 104.622973 
L 290.184356 104.622973 
L 290.184356 112.641155 
L 289.268592 112.641155 
z
" clip-path="url(#pf155657168)" style="fill: #b0b0b0; opacity: 0.75"/>
   </g>
   <g id="patch_26">
    <path d="M 289.268592 127.532064 
L 289.706744 127.532064 
L 289.706744 135.550246 
L 289.268592 135.550246 
z
" clip-path="url(#pf155657168)" style="fill: #b0b0b0; opacity: 0.75"/>
   </g>
   <g id="patch_27">
    <path d="M 289.268592 150.441155 
L 288.991149 150.441155 
L 288.991149 158.459337 
L 289.268592 158.459337 
z
" clip-path="url(#pf155657168)" style="fill: #b0b0b0; opacity: 0.75"/>
   </g>
   <g id="patch_28">
    <path d="M 289.268592 173.350246 
L 288.677362 173.350246 
L 288.677362 181.368428 
L 289.268592 181.368428 
z
" clip-path="url(#pf155657168)" style="fill: #b0b0b0; opacity: 0.75"/>
   </g>
   <g id="patch_29">
    <path d="M 289.268592 196.259337 
L 288.411918 196.259337 
L 288.411918 204.277519 
L 289.268592 204.277519 
z
" clip-path="url(#pf155657168)" style="fill: #b0b0b0; opacity: 0.75"/>
   </g>
   <g id="patch_30">
    <path d="M 289.268592 27.877519 
L 428.79449 27.877519 
L 428.79449 35.895701 
L 289.268592 35.895701 
z
" clip-path="url(#pf155657168)" style="fill: url(#h149c79b57b); opacity: 0.45; stroke: #555555; stroke-width: 0.3; stroke-linejoin: miter"/>
   </g>
   <g id="patch_31">
    <path d="M 289.268592 50.78661 
L 325.342966 50.78661 
L 325.342966 58.804791 
L 289.268592 58.804791 
z
" clip-path="url(#pf155657168)" style="fill: url(#h149c79b57b); opacity: 0.45; stroke: #555555; stroke-width: 0.3; stroke-linejoin: miter"/>
   </g>
   <g id="patch_32">
    <path d="M 289.268592 73.695701 
L 292.632842 73.695701 
L 292.632842 81.713882 
L 289.268592 81.713882 
z
" clip-path="url(#pf155657168)" style="fill: url(#had5d3e1578); opacity: 0.45; stroke: #555555; stroke-width: 0.3; stroke-linejoin: miter"/>
   </g>
   <g id="patch_33">
    <path d="M 289.268592 96.604791 
L 291.339359 96.604791 
L 291.339359 104.622973 
L 289.268592 104.622973 
z
" clip-path="url(#pf155657168)" style="fill: url(#he05ef28f12); opacity: 0.45; stroke: #555555; stroke-width: 0.3; stroke-linejoin: miter"/>
   </g>
   <g id="patch_34">
    <path d="M 289.268592 119.513882 
L 290.439257 119.513882 
L 290.439257 127.532064 
L 289.268592 127.532064 
z
" clip-path="url(#pf155657168)" style="fill: url(#had5d3e1578); opacity: 0.45; stroke: #555555; stroke-width: 0.3; stroke-linejoin: miter"/>
   </g>
   <g id="patch_35">
    <path d="M 289.268592 142.422973 
L 290.145011 142.422973 
L 290.145011 150.441155 
L 289.268592 150.441155 
z
" clip-path="url(#pf155657168)" style="fill: url(#had5d3e1578); opacity: 0.45; stroke: #555555; stroke-width: 0.3; stroke-linejoin: miter"/>
   </g>
   <g id="patch_36">
    <path d="M 289.268592 165.332064 
L 290.910495 165.332064 
L 290.910495 173.350246 
L 289.268592 173.350246 
z
" clip-path="url(#pf155657168)" style="fill: url(#he05ef28f12); opacity: 0.45; stroke: #555555; stroke-width: 0.3; stroke-linejoin: miter"/>
   </g>
   <g id="patch_37">
    <path d="M 289.268592 188.241155 
L 290.380594 188.241155 
L 290.380594 196.259337 
L 289.268592 196.259337 
z
" clip-path="url(#pf155657168)" style="fill: url(#he05ef28f12); opacity: 0.45; stroke: #555555; stroke-width: 0.3; stroke-linejoin: miter"/>
   </g>
   <g id="patch_38">
    <path d="M 279.218 213.097519 
L 279.218 19.057519 
" style="fill: none; stroke: #4a4a4a; stroke-width: 0.8; stroke-linejoin: miter; stroke-linecap: square"/>
   </g>
   <g id="patch_39">
    <path d="M 279.218 213.097519 
L 437.69 213.097519 
" style="fill: none; stroke: #4a4a4a; stroke-width: 0.8; stroke-linejoin: miter; stroke-linecap: square"/>
   </g>
   <g id="LineCollection_3">
    <path d="M 428.536676 39.904791 
L 429.590292 39.904791 
" clip-path="url(#pf155657168)" style="fill: none; stroke: #555555; stroke-width: 0.5"/>
    <path d="M 321.481955 62.813882 
L 324.866676 62.813882 
" clip-path="url(#pf155657168)" style="fill: none; stroke: #555555; stroke-width: 0.5"/>
    <path d="M 290.045672 85.722973 
L 293.770791 85.722973 
" clip-path="url(#pf155657168)" style="fill: none; stroke: #555555; stroke-width: 0.5"/>
    <path d="M 288.275033 108.632064 
L 292.093678 108.632064 
" clip-path="url(#pf155657168)" style="fill: none; stroke: #555555; stroke-width: 0.5"/>
    <path d="M 287.822686 131.541155 
L 291.590803 131.541155 
" clip-path="url(#pf155657168)" style="fill: none; stroke: #555555; stroke-width: 0.5"/>
    <path d="M 287.061742 154.450246 
L 290.920555 154.450246 
" clip-path="url(#pf155657168)" style="fill: none; stroke: #555555; stroke-width: 0.5"/>
    <path d="M 287.187061 177.359337 
L 290.167663 177.359337 
" clip-path="url(#pf155657168)" style="fill: none; stroke: #555555; stroke-width: 0.5"/>
    <path d="M 286.421273 200.268428 
L 290.402564 200.268428 
" clip-path="url(#pf155657168)" style="fill: none; stroke: #555555; stroke-width: 0.5"/>
   </g>
   <g id="line2d_34">
    <g clip-path="url(#pf155657168)">
     <use xlink:href="#m7fabf2bde7" x="428.536676" y="39.904791" style="fill: #555555; stroke: #555555; stroke-width: 0.5"/>
     <use xlink:href="#m7fabf2bde7" x="321.481955" y="62.813882" style="fill: #555555; stroke: #555555; stroke-width: 0.5"/>
     <use xlink:href="#m7fabf2bde7" x="290.045672" y="85.722973" style="fill: #555555; stroke: #555555; stroke-width: 0.5"/>
     <use xlink:href="#m7fabf2bde7" x="288.275033" y="108.632064" style="fill: #555555; stroke: #555555; stroke-width: 0.5"/>
     <use xlink:href="#m7fabf2bde7" x="287.822686" y="131.541155" style="fill: #555555; stroke: #555555; stroke-width: 0.5"/>
     <use xlink:href="#m7fabf2bde7" x="287.061742" y="154.450246" style="fill: #555555; stroke: #555555; stroke-width: 0.5"/>
     <use xlink:href="#m7fabf2bde7" x="287.187061" y="177.359337" style="fill: #555555; stroke: #555555; stroke-width: 0.5"/>
     <use xlink:href="#m7fabf2bde7" x="286.421273" y="200.268428" style="fill: #555555; stroke: #555555; stroke-width: 0.5"/>
    </g>
   </g>
   <g id="line2d_35">
    <g clip-path="url(#pf155657168)">
     <use xlink:href="#m7fabf2bde7" x="429.590292" y="39.904791" style="fill: #555555; stroke: #555555; stroke-width: 0.5"/>
     <use xlink:href="#m7fabf2bde7" x="324.866676" y="62.813882" style="fill: #555555; stroke: #555555; stroke-width: 0.5"/>
     <use xlink:href="#m7fabf2bde7" x="293.770791" y="85.722973" style="fill: #555555; stroke: #555555; stroke-width: 0.5"/>
     <use xlink:href="#m7fabf2bde7" x="292.093678" y="108.632064" style="fill: #555555; stroke: #555555; stroke-width: 0.5"/>
     <use xlink:href="#m7fabf2bde7" x="291.590803" y="131.541155" style="fill: #555555; stroke: #555555; stroke-width: 0.5"/>
     <use xlink:href="#m7fabf2bde7" x="290.920555" y="154.450246" style="fill: #555555; stroke: #555555; stroke-width: 0.5"/>
     <use xlink:href="#m7fabf2bde7" x="290.167663" y="177.359337" style="fill: #555555; stroke: #555555; stroke-width: 0.5"/>
     <use xlink:href="#m7fabf2bde7" x="290.402564" y="200.268428" style="fill: #555555; stroke: #555555; stroke-width: 0.5"/>
    </g>
   </g>
   <g id="LineCollection_4">
    <path d="M 427.102252 31.88661 
L 430.486727 31.88661 
" clip-path="url(#pf155657168)" style="fill: none; stroke: #555555; stroke-width: 0.5"/>
    <path d="M 324.920054 54.795701 
L 325.765878 54.795701 
" clip-path="url(#pf155657168)" style="fill: none; stroke: #555555; stroke-width: 0.5"/>
    <path d="M 292.500538 77.704791 
L 292.765146 77.704791 
" clip-path="url(#pf155657168)" style="fill: none; stroke: #555555; stroke-width: 0.5"/>
    <path d="M 291.227025 100.613882 
L 291.451694 100.613882 
" clip-path="url(#pf155657168)" style="fill: none; stroke: #555555; stroke-width: 0.5"/>
    <path d="M 290.348522 123.522973 
L 290.529992 123.522973 
" clip-path="url(#pf155657168)" style="fill: none; stroke: #555555; stroke-width: 0.5"/>
    <path d="M 290.060172 146.432064 
L 290.229851 146.432064 
" clip-path="url(#pf155657168)" style="fill: none; stroke: #555555; stroke-width: 0.5"/>
    <path d="M 290.827752 169.341155 
L 290.993239 169.341155 
" clip-path="url(#pf155657168)" style="fill: none; stroke: #555555; stroke-width: 0.5"/>
    <path d="M 290.280824 192.250246 
L 290.480365 192.250246 
" clip-path="url(#pf155657168)" style="fill: none; stroke: #555555; stroke-width: 0.5"/>
   </g>
   <g id="line2d_36">
    <g clip-path="url(#pf155657168)">
     <use xlink:href="#m7fabf2bde7" x="427.102252" y="31.88661" style="fill: #555555; stroke: #555555; stroke-width: 0.5"/>
     <use xlink:href="#m7fabf2bde7" x="324.920054" y="54.795701" style="fill: #555555; stroke: #555555; stroke-width: 0.5"/>
     <use xlink:href="#m7fabf2bde7" x="292.500538" y="77.704791" style="fill: #555555; stroke: #555555; stroke-width: 0.5"/>
     <use xlink:href="#m7fabf2bde7" x="291.227025" y="100.613882" style="fill: #555555; stroke: #555555; stroke-width: 0.5"/>
     <use xlink:href="#m7fabf2bde7" x="290.348522" y="123.522973" style="fill: #555555; stroke: #555555; stroke-width: 0.5"/>
     <use xlink:href="#m7fabf2bde7" x="290.060172" y="146.432064" style="fill: #555555; stroke: #555555; stroke-width: 0.5"/>
     <use xlink:href="#m7fabf2bde7" x="290.827752" y="169.341155" style="fill: #555555; stroke: #555555; stroke-width: 0.5"/>
     <use xlink:href="#m7fabf2bde7" x="290.280824" y="192.250246" style="fill: #555555; stroke: #555555; stroke-width: 0.5"/>
    </g>
   </g>
   <g id="line2d_37">
    <g clip-path="url(#pf155657168)">
     <use xlink:href="#m7fabf2bde7" x="430.486727" y="31.88661" style="fill: #555555; stroke: #555555; stroke-width: 0.5"/>
     <use xlink:href="#m7fabf2bde7" x="325.765878" y="54.795701" style="fill: #555555; stroke: #555555; stroke-width: 0.5"/>
     <use xlink:href="#m7fabf2bde7" x="292.765146" y="77.704791" style="fill: #555555; stroke: #555555; stroke-width: 0.5"/>
     <use xlink:href="#m7fabf2bde7" x="291.451694" y="100.613882" style="fill: #555555; stroke: #555555; stroke-width: 0.5"/>
     <use xlink:href="#m7fabf2bde7" x="290.529992" y="123.522973" style="fill: #555555; stroke: #555555; stroke-width: 0.5"/>
     <use xlink:href="#m7fabf2bde7" x="290.229851" y="146.432064" style="fill: #555555; stroke: #555555; stroke-width: 0.5"/>
     <use xlink:href="#m7fabf2bde7" x="290.993239" y="169.341155" style="fill: #555555; stroke: #555555; stroke-width: 0.5"/>
     <use xlink:href="#m7fabf2bde7" x="290.480365" y="192.250246" style="fill: #555555; stroke: #555555; stroke-width: 0.5"/>
    </g>
   </g>
   <g id="text_32">
    <text style="fill: #3a3a3a; font: 500 8.5px 'Arial', 'Helvetica', 'DejaVu Sans', sans-serif; text-anchor: start" x="260.20136" y="13.387734" transform="rotate(-0 260.20136 13.387734)">(B)</text>
   </g>
   <g id="text_33">
    <!-- $k_\mathrm{eff}$ (coupled) -->
    <g transform="translate(334.534 15.057519)">
     <text>
      <tspan style="font: oblique 8px 'DejaVu Sans'" x="0" y="-0.921875">k</tspan>
      <tspan style="font: 5.6px 'DejaVu Sans'" x="4.632812 8.078125 10.049609" y="0.390625">eff</tspan>
      <tspan style="font: 8px 'Arial'" x="12.239844 14.4625 17.126562 21.126562 25.575781 30.025 34.474219 36.251562 40.700781 45.15" y="-0.921875"> (coupled)</tspan>
     </text>
    </g>
   </g>
  </g>
  <g id="legend_1">
   <g id="patch_40">
    <path d="M 145.902812 237.294472 
L 153.702812 237.294472 
L 153.702812 232.744472 
L 145.902812 232.744472 
z
" style="fill: #3a7d7b; stroke: #3a7d7b; stroke-linejoin: miter"/>
   </g>
   <g id="text_34">
    <text style="font: 6.5px 'Arial', 'Helvetica', 'DejaVu Sans', sans-serif; text-anchor: start" x="156.952812" y="237.294472" transform="rotate(-0 156.952812 237.294472)">Elastic / structural</text>
   </g>
   <g id="patch_41">
    <path d="M 145.902812 246.488925 
L 153.702812 246.488925 
L 153.702812 241.938925 
L 145.902812 241.938925 
z
" style="fill: #d4853a; stroke: #d4853a; stroke-linejoin: miter"/>
   </g>
   <g id="text_35">
    <text style="font: 6.5px 'Arial', 'Helvetica', 'DejaVu Sans', sans-serif; text-anchor: start" x="156.952812" y="246.488925" transform="rotate(-0 156.952812 246.488925)">Thermal expansion</text>
   </g>
   <g id="patch_42">
    <path d="M 221.977187 237.294472 
L 229.777187 237.294472 
L 229.777187 232.744472 
L 221.977187 232.744472 
z
" style="fill: #7b6ba5; stroke: #7b6ba5; stroke-linejoin: miter"/>
   </g>
   <g id="text_36">
    <text style="font: 6.5px 'Arial', 'Helvetica', 'DejaVu Sans', sans-serif; text-anchor: start" x="233.027187" y="237.294472" transform="rotate(-0 233.027187 237.294472)">Conductivity</text>
   </g>
   <g id="patch_43">
    <path d="M 221.977187 246.787519 
L 229.777187 246.787519 
L 229.777187 242.237519 
L 221.977187 242.237519 
z
" style="fill: #888888; opacity: 0.75"/>
   </g>
   <g id="text_37">
    <!-- $S_1$ (first-order) -->
    <g transform="translate(233.027187 246.787519)">
     <text>
      <tspan style="font: oblique 6.5px 'DejaVu Sans'" x="0" y="-0.171875">S</tspan>
      <tspan style="font: 4.55px 'DejaVu Sans'" x="4.125977" y="0.8968749999999996">1</tspan>
      <tspan style="font: 6.5px 'Arial'" x="7.19895 9.004858 11.169409 12.975317 14.419409 16.58396 19.83396 21.639868 23.804419 27.419409 29.58396 33.19895 36.81394 38.978491" y="-0.171875"> (first-order)</tspan>
     </text>
    </g>
   </g>
   <g id="patch_44">
    <path d="M 283.922188 237.294472 
L 291.722188 237.294472 
L 291.722188 232.744472 
L 283.922188 232.744472 
z
" style="fill: url(#h39d16f1283); opacity: 0.45; stroke: #555555; stroke-width: 0.3; stroke-linejoin: miter"/>
   </g>
   <g id="text_38">
    <!-- $S_T$ (total) -->
    <g transform="translate(294.972188 237.294472)">
     <text>
      <tspan style="font: oblique 6.5px 'DejaVu Sans'" x="0" y="-0.171875">S</tspan>
      <tspan style="font: oblique 4.55px 'DejaVu Sans'" x="4.125977" y="0.8968749999999996">T</tspan>
      <tspan style="font: 6.5px 'Arial'" x="7.083423 8.889331 11.053882 12.85979 16.47478 18.280688 21.895679 23.339771" y="-0.171875"> (total)</tspan>
     </text>
    </g>
   </g>
  </g>
 </g>
 <defs>
  <clipPath id="p2f4558893e">
   <rect x="41.51" y="19.057519" width="158.472" height="194.04"/>
  </clipPath>
  <clipPath id="pf155657168">
   <rect x="279.218" y="19.057519" width="158.472" height="194.04"/>
  </clipPath>
 </defs>
 <defs>
  <pattern id="had5d3e1578" patternUnits="userSpaceOnUse" x="0" y="0" width="72" height="72">
   <rect x="0" y="0" width="73" height="73" fill="#3a7d7b"/>
   <path d="M -36 36 
L 36 -36 
M -32 40 
L 40 -32 
M -28 44 
L 44 -28 
M -24 48 
L 48 -24 
M -20 52 
L 52 -20 
M -16 56 
L 56 -16 
M -12 60 
L 60 -12 
M -8 64 
L 64 -8 
M -4 68 
L 68 -4 
M 0 72 
L 72 0 
M 4 76 
L 76 4 
M 8 80 
L 80 8 
M 12 84 
L 84 12 
M 16 88 
L 88 16 
M 20 92 
L 92 20 
M 24 96 
L 96 24 
M 28 100 
L 100 28 
M 32 104 
L 104 32 
M 36 108 
L 108 36 
" style="fill: #555555; stroke: #555555; stroke-width: 1.0; stroke-linecap: butt; stroke-linejoin: miter; stroke-opacity: 0.45"/>
  </pattern>
  <pattern id="h149c79b57b" patternUnits="userSpaceOnUse" x="0" y="0" width="72" height="72">
   <rect x="0" y="0" width="73" height="73" fill="#d4853a"/>
   <path d="M -36 36 
L 36 -36 
M -32 40 
L 40 -32 
M -28 44 
L 44 -28 
M -24 48 
L 48 -24 
M -20 52 
L 52 -20 
M -16 56 
L 56 -16 
M -12 60 
L 60 -12 
M -8 64 
L 64 -8 
M -4 68 
L 68 -4 
M 0 72 
L 72 0 
M 4 76 
L 76 4 
M 8 80 
L 80 8 
M 12 84 
L 84 12 
M 16 88 
L 88 16 
M 20 92 
L 92 20 
M 24 96 
L 96 24 
M 28 100 
L 100 28 
M 32 104 
L 104 32 
M 36 108 
L 108 36 
" style="fill: #555555; stroke: #555555; stroke-width: 1.0; stroke-linecap: butt; stroke-linejoin: miter; stroke-opacity: 0.45"/>
  </pattern>
  <pattern id="he05ef28f12" patternUnits="userSpaceOnUse" x="0" y="0" width="72" height="72">
   <rect x="0" y="0" width="73" height="73" fill="#7b6ba5"/>
   <path d="M -36 36 
L 36 -36 
M -32 40 
L 40 -32 
M -28 44 
L 44 -28 
M -24 48 
L 48 -24 
M -20 52 
L 52 -20 
M -16 56 
L 56 -16 
M -12 60 
L 60 -12 
M -8 64 
L 64 -8 
M -4 68 
L 68 -4 
M 0 72 
L 72 0 
M 4 76 
L 76 4 
M 8 80 
L 80 8 
M 12 84 
L 84 12 
M 16 88 
L 88 16 
M 20 92 
L 92 20 
M 24 96 
L 96 24 
M 28 100 
L 100 28 
M 32 104 
L 104 32 
M 36 108 
L 108 36 
" style="fill: #555555; stroke: #555555; stroke-width: 1.0; stroke-linecap: butt; stroke-linejoin: miter; stroke-opacity: 0.45"/>
  </pattern>
  <pattern id="h39d16f1283" patternUnits="userSpaceOnUse" x="0" y="0" width="72" height="72">
   <rect x="0" y="0" width="73" height="73" fill="#888888"/>
   <path d="M -36 36 
L 36 -36 
M -32 40 
L 40 -32 
M -28 44 
L 44 -28 
M -24 48 
L 48 -24 
M -20 52 
L 52 -20 
M -16 56 
L 56 -16 
M -12 60 
L 60 -12 
M -8 64 
L 64 -8 
M -4 68 
L 68 -4 
M 0 72 
L 72 0 
M 4 76 
L 76 4 
M 8 80 
L 80 8 
M 12 84 
L 84 12 
M 16 88 
L 88 16 
M 20 92 
L 92 20 
M 24 96 
L 96 24 
M 28 100 
L 100 28 
M 32 104 
L 104 32 
M 36 108 
L 108 36 
" style="fill: #555555; stroke: #555555; stroke-width: 1.0; stroke-linecap: butt; stroke-linejoin: miter; stroke-opacity: 0.45"/>
  </pattern>
 </defs>
</svg>
